<svg width="340" height="100" viewBox="0 0 340 100" fill="none" xmlns="http://www.w3.org/2000/svg">
<path d="M75.136 88.0662H8.47311C9.40941 79.4489 14.2766 74.2916 18.9271 70.3747C22.3551 67.4941 28.6229 63.316 35.9121 60.2232C37.3049 59.6275 38.7751 59.0155 40.2686 58.3871C48.8423 54.7803 58.5612 50.6838 63.3897 47.7787C73.0854 41.9359 77.2175 35.4893 77.2175 26.2355C77.2175 18.7361 73.5884 12.5751 66.1135 7.40958C59.0023 2.49706 49.5696 0 38.0864 0H36.0978C26.7038 0 18.517 2.48074 11.7695 7.36062C4.84399 12.3629 0.944036 18.7932 0.185712 26.4803L0 28.3245L1.71784 28.6917C5.21541 29.4833 7.9005 27.8512 8.87549 24.3749C10.2993 19.699 13.6885 15.8066 18.9426 12.828C24.0265 10.0127 29.799 8.58466 36.09 8.58466H38.0787C46.7453 8.58466 54.0267 10.2004 59.7296 13.3748C66.276 17.0796 69.0617 20.9231 69.0617 26.2273C69.0617 32.0782 65.9819 36.2727 58.0814 41.1933C54.3362 43.5272 48.672 45.9345 40.8412 49.2639C38.3882 50.3084 35.7186 51.4427 32.8323 52.6912C22.6104 57.1386 17.6968 61.0066 13.7504 64.1075L12.8992 64.7767C7.03384 69.3709 0.03869 77.4986 0.03869 90.1716C0.03869 94.2273 2.35235 96.6509 6.22909 96.6509H81.0633V94.6027C81.0633 90.4491 78.9044 88.0662 75.136 88.0662ZM166.738 5.45926C166.738 3.50078 165.678 1.77079 163.976 0.946598C162.243 0.114245 160.277 0.416176 158.838 1.72999L90.6275 64.2381C88.6775 66.0252 88.0198 68.7181 88.9174 71.256C89.815 73.7938 92.0745 75.4341 94.6744 75.4341H158.436V95.0352V97.1487H160.633C164.456 97.1487 166.738 94.7169 166.738 90.6449V75.4259H178.361C182.021 75.4259 184.203 72.9941 184.203 68.9221V66.7678H166.738V5.45926ZM158.436 29.165V66.776H99.8125L158.644 13.4809L158.436 29.165ZM228.921 3.71295L197.93 96.047L199.834 96.806C200.662 97.1242 201.436 97.2956 202.163 97.2956C202.852 97.2956 203.502 97.1487 204.105 96.8549C205.297 96.2674 206.171 95.1576 206.69 93.5663L237.541 1.69735L235.769 0.889476C232.922 -0.383535 230.36 0.660987 228.921 3.71295ZM334.142 1.40358H253.605V3.58238C253.605 7.71151 255.787 10.1759 259.463 10.1759H329.523L280.433 88.5722C279.899 89.5433 279.636 90.6041 279.636 91.7221C279.636 93.9906 280.564 95.892 282.205 97.1324L283.992 99.0174L338.452 11.7182C339.489 10.1433 340 8.73971 340 7.44222C340 3.65583 337.81 1.39542 334.142 1.39542V1.40358Z" fill="#0081FF"/>
</svg>
