<svg width="108" height="125" viewBox="0 0 108 125" fill="none" xmlns="http://www.w3.org/2000/svg">
<path d="M86.7771 56.9679C97.0986 51.537 102.323 42.8987 102.323 31.2318C102.336 10.505 86.4331 0.000976562 55.0608 0.000976562H49.8618C19.5344 0.000976562 3.63164 9.91715 2.59949 29.4811L2.48481 31.6663L4.63831 32.0369C9.37855 32.8547 12.7426 30.6823 13.8894 26.1204C16.6546 15.8847 28.76 10.6839 49.8745 10.6839H55.0735C79.705 10.6839 91.683 17.4054 91.683 31.219C91.683 45.0327 79.705 52.6487 55.0735 52.6487H25.3068C23.9433 52.6487 22.8475 53.7604 22.8475 55.115C22.8475 60.3414 25.7018 63.3316 30.6842 63.3316H60.0686C84.7001 63.3316 96.6781 71.4077 96.6781 88.007C96.6781 98.4471 90.7018 105.68 78.4307 110.127C70.6067 112.887 61.3556 114.293 50.9322 114.293C32.9396 114.293 20.1588 109.475 12.9337 100.006C11.4046 97.936 9.17467 96.8498 6.48598 96.8498C4.93139 96.8498 3.38953 97.3482 1.89865 98.3449L0 99.61L1.12135 101.616C9.79906 117.117 26.5556 124.988 50.9449 124.988C66.1086 124.988 78.8512 122.292 88.8414 116.976C101.125 110.433 107.356 100.683 107.356 88.007C107.356 72.8389 100.45 62.4115 86.7898 56.9551" fill="#0081FF"/>
</svg>
