<svg width="111" height="111" viewBox="0 0 111 111" fill="none" xmlns="http://www.w3.org/2000/svg">
<path d="M9.31728 59.2381L9.74641 59.0028L9.11362 59.2528L9.31728 59.2381ZM20.6929 64.0898L20.9257 64.2883L21.1439 64.2736L21.3621 64.2589L21.3476 64.0384L21.1293 64.0531L20.7002 64.0825L20.6929 64.0898ZM14.2996 63.7737L14.7142 63.7443L14.5105 63.759L14.2923 63.7737H14.2996ZM17.6308 58.4074L17.849 58.3927L18.0454 58.1574L18.2854 58.3559L18.46 58.128L18.6782 58.1133L18.6927 58.3339L18.4891 58.5544L18.5036 58.7749L18.5182 58.9955L18.3291 59.0102L18.5327 59.216L18.3582 59.4439L18.1327 59.4586L17.929 59.6718L17.7327 59.9217L17.4999 59.7012L17.3035 59.9511L17.0999 59.9658L16.8889 59.9805L16.6707 59.9952L16.438 59.7747L16.2416 60.0246L16.2561 60.2231L16.0598 60.4584L16.4889 60.4289L16.7071 60.4142L16.7216 60.6201L16.5034 60.6348L16.518 60.8553L16.9471 60.8259L17.1435 60.5907L17.3472 60.576L17.5654 60.5613L17.5799 60.7818L17.5945 61.017L17.609 61.2155L18.0381 61.1861L18.2563 61.1714L18.06 61.4214L18.2854 61.6051L18.5255 61.7963L18.7146 61.7816L19.1437 61.7522L19.3619 61.7375L19.5656 61.5169V61.4728L19.922 61.4508L20.1183 61.4361L19.9365 61.6713L19.7401 61.9065L19.5219 61.9212L19.3037 61.9359L19.1001 62.1491L19.1146 62.3697L18.8964 62.3844L18.4818 62.4138L18.2636 62.4285L18.0454 62.4432L17.8127 62.2447L17.5945 62.2594L17.5799 62.0609L17.369 62.0756L17.1726 62.0903L16.9617 62.105L17.1871 62.2888L16.9908 62.524L16.758 62.3256L16.5398 62.3402L16.5544 62.5608L16.3725 62.9945L15.9434 63.0239L15.3324 63.2959L15.347 63.5017L15.1288 63.5164L14.7142 63.7664L14.7433 64.2001L14.9615 64.1854L15.1797 64.1707L15.1651 63.9575L15.3833 63.9428L15.3979 64.156L15.5943 63.9207L15.9943 63.6708L16.438 63.8546L16.8671 63.8252L16.8817 64.0384L17.1144 64.2369L17.529 64.2074L17.7254 63.9722L17.7108 63.759L17.6963 63.5385L17.8927 63.3033L18.1254 63.5017L18.3436 63.487L18.5618 63.4723L18.7655 63.4576L18.9837 63.4429L19.2164 63.6414L19.4492 63.8399L19.4637 64.0604L19.6819 64.0457L19.8783 63.8105L20.2929 63.7811L20.5257 63.9796L20.9548 63.9502L20.9402 63.7296L21.1439 63.4944L21.3766 63.6929L21.5876 63.8987L21.8058 63.884L22.0167 63.8693L22.0313 64.0678L22.4604 64.0384L22.6786 64.0237L22.8968 64.009L23.1005 63.9943L23.3332 64.1927L23.5514 64.178L23.7842 64.3765L24.1987 64.1266L24.4169 64.1119L24.6279 64.3177L24.8243 64.0825L25.0206 63.8472L25.2534 63.8325L25.4425 63.6194L25.6389 63.3841L25.4061 63.1856L25.2025 63.2003L24.9843 63.4356L24.7515 63.2371L24.5333 63.2518L24.3224 63.046L24.0896 62.8475L24.0751 62.6416L24.2933 62.6269L24.4897 62.6122L24.7224 62.8034L24.9261 62.5828L24.9115 62.355L24.6933 62.3697L24.897 62.1638L25.1297 62.1491L25.3334 62.1344L25.5516 62.1197L25.5371 61.8845L25.7553 61.8698L25.9516 61.8551L26.148 61.6198L26.3517 61.4067L26.3371 61.1861L26.5408 60.7524L26.5262 60.5319L26.4972 60.0981L26.2499 59.8997L25.8062 59.7159L25.3916 59.7453L25.1588 59.5542L24.9697 59.7747L24.737 59.7894L24.5406 60.0246L24.3078 59.8262L24.2933 59.6203L24.2788 59.3998L24.497 59.3851L24.6933 59.1498L24.9115 58.9146L24.897 58.7161L24.8824 58.4809L24.8679 58.2824L24.6206 58.0839L24.6061 57.8634L24.1624 57.687L23.966 57.7017L23.9514 57.4738L24.1478 57.4591L24.366 57.4444L24.5988 57.6576L24.526 56.5843L24.5115 56.3711L24.497 56.1506L24.4824 55.93L24.2497 55.7316L24.2351 55.5184L24.0169 55.5331L23.806 55.3493L23.5878 55.364L23.5732 55.1435L23.5441 54.7097L23.5296 54.4892L23.7332 54.2687L23.7187 54.0555L23.4932 53.8717L23.4787 53.6365L23.4641 53.438L23.646 52.9896L23.4132 52.7984L23.1659 52.3794L23.1514 52.4162L22.9113 52.0339L22.6786 51.8354L22.4531 51.6443L22.2349 51.659L21.8203 51.6884L21.6167 51.7031L21.3766 51.5046L21.1657 51.5193L21.1512 51.3209L21.3694 51.3062L21.6094 51.4899L21.8131 51.4752L22.0385 51.4605L22.024 51.2621L22.424 51.2327L22.6204 50.9827L22.4022 50.9974L22.1695 50.7989L21.9803 50.8136L21.9658 50.6078L22.3658 50.5784L22.584 50.5637L22.8095 50.7548L23.0277 50.5343L23.2241 50.5196L23.2096 50.2917L23.6169 50.0712L23.8278 49.8212L23.8133 49.6227L23.5732 49.4243L23.7842 49.189L23.9878 49.1743L23.9733 48.9611L24.206 48.9464L24.3878 48.7259L24.3733 48.5054L24.3588 48.2848L24.1624 48.2995L23.9296 48.3142L23.726 48.3289L23.7114 48.1084L23.4714 47.9099L23.2677 47.9246L22.8532 47.954L22.6204 47.9687L22.1913 47.9981L21.9731 48.0128L21.573 48.2628L21.3694 48.2775L21.3548 48.0569L21.3403 47.8364L21.3257 47.6159L21.7403 47.3806L21.9294 47.3659L21.9149 47.1454L22.1113 46.9102L22.3295 46.8955L22.5477 46.8808L22.7659 46.6602L22.9477 46.4103L23.3623 46.3809L23.3477 46.1604L23.5587 45.9545L23.3187 45.7413L23.115 45.756L22.8968 45.7707L22.8822 45.5649L22.4677 45.8001L22.024 45.6237L22.0094 45.3958L21.8131 45.6384L21.6094 45.4252L21.7985 45.4105L21.3694 45.2341L21.1657 45.2488L21.1803 45.4546L20.9839 45.9031L21.2094 45.8884L20.9984 46.1383L20.5547 45.9398L20.7875 46.153L20.5693 46.1677L20.3656 46.3735L20.5984 46.572L20.6129 46.8073L20.6275 47.0131L20.3947 46.822L20.1911 46.8367L20.1765 46.6014L19.9583 46.6161L19.7401 46.6308L19.5437 46.8808L19.5583 47.0866L19.5728 47.3071L19.5874 47.5277L19.8129 47.7114L19.8274 47.932L19.4128 47.9614L19.4274 48.1746L19.4419 48.3951L19.2164 48.4098L19.0273 48.645L19.0419 48.8656L19.0564 49.0861L18.6418 49.3214L18.7146 49.3802L18.4818 49.2846V49.3949L18.2927 49.6448L18.5109 49.6301L18.7437 49.6154L18.7291 49.3875L18.8819 49.5198L19.1146 49.7183L19.2892 49.2699L19.5146 49.2552L19.7038 49.0347L19.922 49.02L19.7183 49.2405L19.5292 49.4684L19.3183 49.7036L19.5437 49.6889L19.5583 49.9094L19.3328 49.9241L19.1292 49.9388L18.9255 50.152L18.7437 50.5857L18.7582 50.8136L18.7728 51.0195L18.9764 50.7989L19.1655 50.3652L19.3692 50.3505L19.6092 50.5196L19.6237 50.7475L19.4128 50.968L19.2092 50.9827L19.2237 51.2032L19.4274 51.1885L19.6528 51.1738L19.871 51.3944L20.0892 51.3797L20.1038 51.5782L19.8856 51.5929L19.9001 51.8134L19.711 52.0339L19.5001 52.2692L19.311 52.5044L19.0928 52.5191L19.1073 52.7396L18.9037 52.9602L18.6855 52.9749L18.7 53.2101L18.4891 53.2248L18.5036 53.4233L18.5327 53.857L18.5473 54.0702L18.7582 54.0555L18.7437 53.8423L18.7291 53.6218L18.9473 53.6071L19.1801 53.8056L19.1946 54.0187L19.4274 54.2172L19.4128 53.9967L19.3983 53.7761L19.5874 53.5409L19.8274 53.7394L19.842 53.9526L20.242 53.7026L20.2565 53.9158L20.4747 53.9011L20.4602 53.6806L20.6784 53.6659L20.8966 53.8717L21.1148 53.857L21.3112 53.6218V53.7688L21.1366 54.004L20.9184 54.0187L20.933 54.2172L20.722 54.0261L20.5184 54.2466L20.3147 54.4819L20.3293 54.6877L20.3584 55.1361L20.3729 55.3419L20.6057 55.5404L20.8239 55.5257L20.6275 55.7389L20.8384 55.7242L21.2675 55.908L21.2821 56.1285L20.8675 56.1579L20.8821 56.3785L20.6638 56.3932L20.6784 56.6137L20.6929 56.8342L20.4747 56.8489L20.2784 57.0842L20.2929 57.2827L20.5111 57.268L20.5257 57.4885L20.5402 57.6943L20.7584 57.6796L20.5547 57.9222L20.3365 57.9369L20.322 57.709L20.1474 57.9222L19.9656 57.7752L19.9511 57.5546L19.7547 57.5693L19.5365 57.5841L19.5219 57.3856L18.8891 57.6355L18.6709 57.6502L18.4745 57.8854L18.06 57.9149L17.8636 58.1501L17.6454 58.1648L17.6599 58.3853L17.6308 58.4074ZM20.1547 91.5832L19.9583 91.5979L19.9729 91.8184L19.5437 91.8478L19.5583 92.0683L19.5728 92.2889L19.9874 92.0389L20.1838 92.0242L20.1693 91.8111L20.3875 91.5758L20.1547 91.5905V91.5832ZM8.33536 26.621L8.55357 26.8342L8.80087 27.0326L9.0118 27.2238L9.23 27.2091L9.4482 27.1944L9.46275 27.4222L9.47729 27.6281L9.49184 27.8486L9.50639 28.0471L9.72459 28.2529L10.1828 28.6572L10.4156 28.6425L10.612 28.6278L10.6265 28.8557L10.641 29.0469L11.0702 29.238L11.3102 29.4365L11.2957 29.2159L11.492 28.9807L11.5066 29.2012L11.7248 29.1865L12.1103 28.9439L12.343 28.9292L12.7867 29.113L12.9685 28.8851L13.2158 29.0836L13.6304 29.0542L13.645 29.2747L14.045 29.0248L14.2632 28.7896L14.7069 28.9733L14.896 28.9586L15.1069 28.7234L15.3397 28.9219L15.3542 29.1424L15.5506 28.9072L15.7688 28.8925L16.1689 28.6425L16.3362 28.2088L16.5834 28.422L16.7798 28.4073L17.2235 28.3779L17.1944 27.9442L17.3908 27.6942L17.5872 27.6795L17.5726 27.459L17.5581 27.2605L17.7617 27.0253L17.7472 26.8195L17.5144 26.6063L17.4999 26.4004L17.4854 26.1799L17.0708 26.2093L17.0562 25.9814L17.2599 25.7756L17.4708 25.952L17.4563 25.7609L17.2453 25.5551L17.2308 25.3345L17.2162 25.114L17.6163 24.864L17.6017 24.6435L17.3981 24.8787L16.9835 24.9082L16.9689 24.6876L16.9544 24.4818L17.1508 24.2465L17.1362 24.026L16.6926 23.8422L16.7071 24.0628L16.4889 24.298L16.3071 24.5259L16.0743 24.5406L15.8634 24.3348L15.8488 24.1142L15.4488 24.3642L15.0342 24.6141L14.816 24.6288L14.9833 23.9599L14.7505 23.7614L14.7651 23.9819L14.5687 24.4303L14.5833 24.6509L14.4087 24.8714L14.1614 24.6803L14.1323 24.2465L14.3505 24.0113L14.3214 23.5923L14.0741 23.3791L13.8923 23.6217L13.645 23.4085L13.6595 23.6364L13.4777 23.8569L13.2813 24.0922L13.0631 24.1069L13.0486 23.8863L13.034 23.6805L13.0049 23.2468L12.794 23.063L12.5903 23.482L12.423 23.9304L12.1903 23.9451L12.1757 23.7393L11.9794 23.754L11.7466 23.7687L11.3902 24.4377L11.3757 24.2171L11.1575 24.2318L11.1429 24.0113L11.3466 23.7908L11.332 23.5629L11.3175 23.3571L11.2884 22.9233L11.5066 22.9086L11.6957 22.8939L11.8994 22.4455L11.6666 22.4602L11.6521 22.2617L11.8703 22.0265L11.8557 21.8207L11.8266 21.3722L11.3829 20.9826L10.9538 21.012L11.1866 21.2105L11.4339 21.6295L11.2156 21.6442L11.2302 21.8648L11.2447 22.0706L11.2593 22.2911L11.0556 22.5043L10.8229 22.3205L10.7938 21.9015L10.5829 22.1221L10.5538 21.703L10.5392 21.4752L10.3356 21.4899L10.1101 21.2987L10.1537 21.953L9.71005 21.7692L9.95734 21.9677L10.1683 22.1588L9.75369 22.4088L9.5573 22.4235L9.54276 22.2029L9.52821 21.9971L9.28091 21.7986L9.29546 22.0191L9.31001 22.225L9.11362 22.2397L9.09908 22.0338L8.89542 22.2544L8.90997 22.4749L9.12817 22.4602L9.32455 22.4455L9.57185 22.6293L10.001 22.5999L10.2192 22.8204L10.4447 23.0042L10.4592 23.2394L10.6629 23.2247L10.8883 23.21L10.9174 23.6143L10.692 23.629L10.2628 23.4526L9.83369 23.482L10.081 23.6732L10.2992 23.8863L10.5247 24.0775L10.3283 24.3127L10.1319 24.3274L9.88461 24.1289L9.67368 23.9378L9.44093 23.9525L9.00452 23.754L8.57539 23.5776L8.1608 23.8128L8.17535 24.0407L8.60448 24.0113L9.01907 23.9819L9.25182 24.173L9.26637 24.3936L9.46275 24.3789L9.47729 24.5994L9.49184 24.8199L9.31001 25.0478L9.3391 25.4668L9.52094 25.239L9.53548 25.4595L9.35365 25.6874L9.14999 25.9226L8.93179 25.9373L8.7354 25.952L8.50265 25.9667L8.32082 26.1946L8.07352 25.9961L7.90623 26.4445L8.11716 26.621L8.34991 26.6063L8.33536 26.621ZM12.2848 58.819L12.2994 59.0249L12.5321 59.0102L12.714 58.7896L12.9322 58.7749L13.3613 58.7455L13.7904 58.7161L14.1905 58.6867L14.4378 58.8779L14.8524 58.6426L15.0342 58.4074L15.0197 58.1868L15.2524 58.1721L15.4342 57.9443L15.4197 57.7458L15.6379 57.7311L15.6234 57.5105L15.6088 57.29L15.5943 57.0695L15.7906 56.8342L15.7761 56.6284L15.7615 56.3932L15.9434 56.18L15.9143 55.7463L15.8997 55.5404L16.1107 55.2905L16.2925 55.07V55.0553L16.4525 54.8568L16.6344 54.6289L16.8671 54.6142L17.0635 54.5995L17.0344 54.1805L17.2526 53.9452L17.2672 54.1584L17.2817 54.3789L17.4781 54.3642L17.4635 54.1437L17.449 53.9305L17.2381 53.7247L17.0199 53.9599L16.8089 53.7541L16.9908 53.5262L17.2235 53.5115L17.209 53.313L17.1944 53.0778L16.9326 52.6735L16.918 52.4529L16.9035 52.2324L16.7071 52.2471L16.4743 52.2618L16.278 52.2765L16.2634 52.0707L16.0452 52.0854L15.8416 52.3059L15.6306 52.3206L15.4124 52.3353L15.0269 52.3647L15.0415 52.35L15.4779 52.3206L15.6743 52.3059L15.4633 52.1221L15.6597 52.1074L15.8925 52.0927L16.0743 51.8648L15.8634 51.6737L15.6161 51.4532L15.6306 51.6884L15.4342 51.7031L15.216 51.7178L14.9978 51.7325L14.5542 51.5267L14.3723 51.7766L13.9432 51.806L13.725 52.0266L13.5504 52.2545L12.9176 52.5044L13.1504 52.7029L13.5941 52.9087L13.7832 52.894L13.6086 53.1072L13.1795 53.1366L13.194 53.3571L13.2086 53.5777L12.7794 53.8129L12.5612 53.6218L12.1321 53.438L12.1176 53.2175L11.8703 53.0337L11.6521 52.8132L11.2229 52.8426L11.0338 53.291L10.8156 53.3057L11.0484 53.5042L11.0629 53.7247L11.0775 53.9305L10.8811 54.1658L10.6992 54.401L10.4665 54.4157L10.2846 54.6436L10.5174 55.0626L10.5319 55.2611L10.7647 55.2464L10.7938 55.6654L10.9756 55.4449L11.412 55.4155L11.6084 55.4008L11.623 55.6066L11.4411 55.8492L11.2229 55.8639L10.5901 56.1138L10.1901 56.5769L9.76096 56.6063L10.0083 56.7901L9.77551 56.8048L9.79005 57.0401L9.16454 57.0842L8.96088 57.0989L8.74995 57.3194L8.7645 57.5326L8.98997 57.5179L9.41911 57.4885L9.65186 57.687L9.43365 57.7017L9.20818 57.7164L9.00452 57.7311L8.79359 57.9663L8.60448 58.2015L8.82269 58.3853L9.03362 58.1648L9.25182 58.3486L9.06271 58.5765L9.07726 58.797L9.28091 58.7823L9.50639 58.7676L9.0918 59.0175L9.73914 58.9734L9.75369 59.1793L9.76823 59.3998L10.1683 59.1498L10.3647 59.1351L10.612 59.3336L11.0411 59.3042L11.2229 59.0763L11.4557 59.2748L11.8703 59.2454L11.8557 59.0249L12.0885 59.0102L12.2703 58.7896L12.2848 58.819ZM18.2345 49.2037L18.46 49.2919V49.189L18.2345 49.2037ZM19.151 46.7852L18.9619 47.0204L18.7437 47.241L18.5764 47.6894L18.7946 47.8952L18.8091 48.1158L19.0128 47.6673L18.9982 47.4689L18.9837 47.2336L19.1728 47.0204L19.1582 46.7999L19.151 46.7852ZM26.1335 42.5877L26.3662 42.7862L26.3808 42.9846L26.1844 43.2199L26.599 42.9699L26.5844 42.7715L26.7808 42.5362L26.7663 42.3157L26.7517 42.0952L26.7372 41.8746L26.7081 41.4556L26.5408 42.1099L26.5553 42.3304L26.1262 42.3598L26.1408 42.5803L26.1335 42.5877ZM47.6265 24.3201L47.641 24.5259L47.8447 24.3054L47.8302 24.0848L48.0484 24.0701L48.2447 24.0554L48.4338 23.4159L48.1866 23.2027L47.9902 23.2174L48.0047 23.4453L47.7865 23.46L47.5683 23.4747L47.5829 23.6805L47.5974 23.879L47.401 24.1142L47.6338 24.3127L47.6265 24.3201ZM74.1891 17.6599L74.6182 17.8363L74.6328 18.0642L75.091 18.248L75.5056 18.4097L75.7093 18.2039L75.4765 18.0054L75.6583 17.557L75.6438 17.3365L75.6293 17.1233L75.3892 16.7484L74.9892 16.7778L74.531 16.6087L74.3055 16.6234L74.32 16.8292L74.16 17.2335L74.1891 17.6673V17.6599ZM23.7405 44.9107L23.726 44.6901L23.7114 44.4843L23.6969 44.2638L23.4859 44.499L23.2677 44.5137L23.5005 44.7048L23.7405 44.9033V44.9107ZM19.1001 55.1582L19.0855 54.9229L18.86 54.7318L18.6418 54.9523L18.46 55.2023L18.6709 55.3861L19.1001 55.1508V55.1582ZM18.1763 57.3635L18.3727 57.3488L18.5909 57.1283L18.3436 56.9298L18.1472 56.9445L17.9436 56.9592L17.9727 57.3782L18.1763 57.3635ZM20.3875 56.0109L20.5984 55.7757L20.3947 56.0109H20.3875ZM18.7218 46.8146L18.3073 47.0645L18.3218 47.263L18.3363 47.4983L18.7509 47.2336L18.7364 47.0351L18.7218 46.8146ZM18.0309 46.1898L18.0454 46.3809L18.2491 45.9398L18.4527 45.7266L18.6855 45.9104L18.7 46.1456L18.8819 45.8957L18.8673 45.6972L19.071 45.4473L19.2892 45.4326L19.2746 45.2341L19.4565 45.0062L19.4419 44.8004L19.2601 45.0209L19.0419 45.0356L18.6273 45.065L18.6564 45.484L18.4236 45.3003L18.4091 45.0797L18.2127 45.315L18.2272 45.5135L18.0236 45.9619L18.0381 46.1971L18.0309 46.1898ZM23.7405 90.679L23.5078 90.4805L23.4932 90.26L23.2605 90.0615L23.0641 90.2967L23.0786 90.5172L22.6495 90.5466L22.4458 90.5613L22.2276 90.576L22.2422 90.7966L22.6568 90.7672L22.8822 90.7525L23.115 91.1715L23.3332 91.1568L23.3477 91.3626L23.566 91.3479L23.7696 91.1274L23.7551 90.9069L23.9733 90.8922L24.1696 90.6569L23.9514 90.6716L23.7332 90.6863L23.7405 90.679ZM40.273 54.9523L40.0694 55.1655L40.0839 55.4008L40.3167 55.5992L40.113 55.8198L40.1276 56.033L40.3603 56.2241L40.7895 56.1947L41.0077 56.18L41.0222 56.4079L40.804 56.4226L41.2477 56.599L41.4659 56.5843L41.2331 56.3932L41.4295 56.1506L41.6332 56.1359L41.8223 55.7022L41.5895 55.5184L41.9896 55.0406L42.1932 54.8274L41.9459 54.4084L42.1496 54.1878L41.9314 54.2025L42.1278 53.9673L41.6986 53.9967L41.4804 54.0114L41.2913 54.2466L41.495 54.2319L41.7277 54.4231L41.5314 54.6583L41.3277 54.673L41.1095 54.6877L41.124 54.9082L41.1386 55.1067L40.9204 55.1214L40.6949 54.9376L40.8913 54.7024L40.8767 54.4892L40.6585 54.5039L40.6731 54.7171L40.4767 54.9523L40.2585 54.967L40.273 54.9523ZM41.495 57.018L41.2768 57.0327L41.044 56.8342L41.0586 57.0474L41.0731 57.2459L41.3059 57.4517L41.2913 57.2312L41.5095 57.2165L41.495 57.018ZM3.60763 78.9245L3.82583 78.9098L3.81128 78.7186L3.59308 78.7333L3.60763 78.9245ZM110.971 44.9401L110.753 44.5357L110.294 44.1461L110.098 44.1608L109.894 44.3667L109.465 44.6313L108.847 44.6754L108.447 44.7048L108.229 44.7195L107.567 44.5357L107.552 44.3446L107.305 43.9109L107.116 43.9256L106.912 43.9403L106.483 44.4181L106.28 44.624L105.894 44.6534L105.45 44.2785L104.992 43.6389L104.963 43.2199L104.948 43.0435L104.701 42.845L104.468 42.6465L104.454 42.448L103.996 42.029L103.937 41.191L104.105 40.5367L103.872 40.3382L103.457 40.1471L103.414 39.4928L103.385 39.0738L103.181 39.2944L103.196 39.5149L102.839 40.4117L102.439 41.0807L101.821 41.3453L101.21 41.61L100.81 41.8452L100.119 41.0366L100.075 40.4044L100.504 40.1692L101.094 39.9266L101.319 40.1103L101.559 40.3015L101.734 40.0809L101.705 39.6325L101.69 39.412L101.894 38.9709L102.068 38.5666L101.835 38.1402L101.406 37.9859L101.392 37.7506L101.166 37.7653L100.97 38.0153L100.555 38.0447L100.366 38.0594L100.155 38.2579L99.3407 38.7577L98.9261 38.7871L98.6642 38.177L98.1987 37.5227L97.966 37.339L98.1696 37.1184L98.4024 37.1037L98.3588 36.4715L98.0824 35.8393L97.595 35.2292L97.7987 34.7808L98.0024 34.5602L98.2351 34.5455L98.2206 34.3103L97.966 33.9501L97.9514 33.7369L97.9078 33.0973L97.8933 32.8621L97.4496 32.8915L97.4205 32.4872L97.2095 32.0682L96.9768 31.8697L96.744 31.4507L96.5113 31.4654L96.4968 31.2596L96.2858 31.0758L96.0822 31.289L95.8349 30.6641L95.3475 29.8261L95.093 29.0322L94.8457 28.6131L94.1693 28.2235L94.1256 27.584L93.8929 27.3928L93.4637 26.9738L93.4346 26.5842L93.1873 26.1358L92.9691 25.952L92.7291 25.7535L92.46 24.9449L92.2563 24.7538L91.8127 24.57L91.7981 24.3495L91.3835 24.1583L91.1508 23.9599L90.8598 22.9013L90.6344 22.916L90.6053 22.497L90.358 22.0927L90.3725 22.2911L90.1398 21.8868L90.1107 21.4384L89.8997 21.262L89.667 20.8283L89.4124 20.4828L88.9833 20.5122L88.9687 20.2843L88.9542 20.0784L89.3833 20.049L89.5943 19.8064L89.5361 18.9537L89.4924 18.3289L89.4633 17.8951L89.667 17.8804L89.8197 17.2262L89.7616 16.3588L89.2888 15.3443L89.4633 14.9106L89.8343 14.4475L90.0161 13.999L89.7543 13.3889L89.7106 12.7567L89.4779 12.3524L89.056 12.1318L89.2306 11.6981L89.0269 11.7128L88.7869 11.529L88.5542 11.5437L88.3869 11.9775L88.1978 11.9922L87.965 11.5879L87.7032 11.3747L87.5141 11.3894L87.2886 11.235L87.2595 10.8307L87.0486 10.8454L86.6049 10.8748L86.4303 11.088L86.1976 11.1027L86.0085 11.1174L85.7757 10.6837L85.5211 10.5146L85.7466 10.2793L85.7248 10L85.4848 10.0147L84.641 10.0735L83.8555 10.5954L83.4409 10.816L82.8227 10.8601L82.379 10.8895L82.6118 11.1174L82.6554 11.6981L82.459 11.9481L82.6918 12.1318L82.9318 12.3303L83.15 12.764L83.5791 12.7346L83.7973 12.9258L83.3973 13.3742L83.2373 14.0284L83.4409 14.0137L83.681 14.2269L83.2809 14.6606L82.8663 14.69L82.4081 14.3151L82.6045 14.0725L82.3572 13.6535L82.139 13.4624L81.9571 13.6829L81.7753 14.1314L81.7899 14.3592L81.8189 14.7636L81.8335 14.9841L81.6589 15.4325L81.0334 15.4766L80.5897 15.506L80.6043 15.7266L80.4443 16.5499L80.4588 16.7704L80.1024 17.2335L80.117 17.4394L80.1315 17.6673L79.8697 17.4541L79.666 17.2629L79.2951 17.9466L79.266 17.4982L79.2369 17.0792L79.4114 16.8513L79.2078 16.6454L79.1787 16.2705L78.9605 16.2852L78.7277 16.2999L78.5241 16.0868L78.3422 16.7116L78.5677 16.6969L78.5968 17.1306L78.3713 17.1453L78.3568 16.9248L78.1531 16.9395L78.1677 17.1527L78.1822 17.3732L78.655 17.9981L78.2259 18.0275L78.0149 17.8216L78.0004 17.5937L77.7822 17.8437L77.5931 18.2627L77.3967 18.2774L77.0403 19.1889L76.8294 19.4095L76.6403 19.6227L76.8585 19.8285L77.0985 20.027L76.6984 20.4901L76.4875 20.7106L76.313 20.7253L76.7421 21.1297L76.7712 21.5193L76.8003 21.9383L76.8148 22.1662L76.5966 22.372L76.2257 22.6366L75.5929 22.9013L75.4256 23.1292L74.7201 22.7396L74.3055 22.5337L73.8909 22.5631L73.4472 22.4088L73.4327 22.1809L73.4036 21.7619L73.389 21.6001L74.0145 21.3208L74 21.115L74.4146 21.0855L74.5819 20.843L74.1673 20.6665L73.9491 20.4607L73.7163 20.2622L73.2872 20.2916L73.0545 19.8726L72.8508 19.8873L72.218 20.152L71.8034 20.1814L71.818 20.4019L71.3743 20.4313L71.8325 20.6151L72.0434 20.8209L72.2762 21.012L72.2907 21.2399L72.3198 21.6736L72.5453 21.8207L72.5599 22.0265L72.749 22.0118L72.5962 22.4749L72.6108 22.666L72.6544 23.335L73.0835 23.3056L73.4836 23.2762L73.6872 23.4673L73.7018 23.6879L73.9636 23.901L73.9782 24.0922L74.2109 24.3127L74.0073 24.5259L73.7963 24.967L74.2837 25.3713L74.5019 25.5771L74.1018 25.827L73.84 25.6286L73.469 25.8712L73.0254 25.9006L73.2363 25.4521L73.4399 25.4374L72.9672 25.0331L72.7926 25.261L72.3635 25.2904L71.9198 25.1066L71.9343 25.3272L71.7525 25.7756L71.5852 26.4298L71.1997 26.6504L70.9815 26.8709L71.0106 27.3046L70.8433 27.7383L70.6469 27.9883L70.4797 28.2309L70.676 28.4073L71.3525 28.7969L71.7671 28.988L71.7816 29.1939L72.2398 29.5982L72.5162 30.223L72.5308 30.4215L72.2835 30.2377L72.0725 30.2524L71.8689 30.4656L71.687 30.2745L71.2361 30.5097L70.6251 30.348L70.1814 30.1422L69.7523 30.1716L69.7378 29.9731L69.5341 29.9878L68.8868 30.0319L68.254 29.8702L68.2831 30.2745L68.0721 30.5244L68.0867 30.7229L68.5449 30.9214L68.7486 31.1125L69.4105 31.2816L69.3959 31.0611L69.6141 31.0464L70.0723 31.4066L70.3342 32.2446L69.9196 32.5092L69.7305 32.7224L69.2868 32.5534L68.8577 32.5828L68.6686 32.5975L68.1958 32.1931L67.9776 31.9873L67.7594 31.7815L67.5776 32.2299L67.3448 32.0314L66.712 31.855L66.6829 31.4654L66.4647 31.4801L66.4502 31.2596L66.4356 31.0611L66.2029 30.8405L66.1883 30.6421L65.9265 30.223L65.7083 30.0319L65.6937 29.8114L65.8828 29.5761L65.8537 29.1571L65.6355 28.9439L65.621 28.7381L65.4101 28.5617L65.2064 28.3485L64.5445 28.3926L64.3263 28.4073L64.1372 28.422L63.8754 28.2088L64.1154 28.1941L64.1008 27.9956L63.8608 28.0103L63.6717 28.025L63.6572 27.8045L63.228 27.8339L63.0244 27.6281L62.7407 27.2238L62.9662 26.8195L62.7116 26.8342L62.508 26.6283L62.6971 26.6136L62.9516 26.5989L63.1408 26.5842L63.599 26.9738L63.7954 27.1503L64.0354 27.1356L64.0208 26.9444L64.4354 27.1061L64.8646 27.2826L65.1119 27.2679L65.301 27.2532L65.5119 27.459L65.9483 27.4296L66.3774 27.4002L67.0102 27.5766L67.2066 27.3414L67.403 27.1061L67.6212 27.312L67.6357 27.5325L68.0649 27.5031L68.4649 27.4737L68.894 27.4443L69.2941 26.9812L69.4977 26.9665L69.9123 26.7312L70.1014 26.5254L70.0869 26.3269L70.3051 26.0917L70.4942 26.077L70.4797 25.8564L70.4651 25.6359L70.6833 25.6212L70.8215 24.7538L70.5888 24.3348L70.5597 23.9157L70.3415 23.9304L70.3124 23.5114L70.1378 23.7246L69.8905 23.5408L69.8614 23.1071L69.4614 23.1365L69.2359 23.1512L69.2213 22.916L68.574 22.7763L68.1594 22.9968L67.963 22.8204L67.7303 22.6072L67.2866 22.4235L67.3012 22.644L67.083 22.4382L66.6247 22.1074L66.0065 22.1515L65.3155 21.7619L64.7118 21.5707L64.2681 21.8354L62.8062 21.9383L62.6171 21.953L62.3479 21.7398L61.9479 21.9971L61.9334 21.7692L61.7297 21.5781L61.526 21.7986L61.2715 21.3943L61.0678 21.409L60.8133 20.99L60.6387 21.0047L60.4569 21.4531L60.2386 21.4678L59.9914 21.0488L59.795 21.0635L59.8386 21.7177L59.4022 21.7472L59.1695 21.5487L58.8276 21.5707L58.9367 20.9091L58.9003 20.9385L58.4712 20.9679L58.253 20.9826L58.4567 20.7694L58.4276 20.3357L58.2021 20.1446L58.4203 20.1299L58.6167 19.8947L58.6021 19.6741L58.5876 19.4536L58.3694 19.4683L58.3548 19.2478L57.9257 19.2772L57.5257 19.5271L57.4966 19.0934L57.0674 19.1228L56.8347 18.9243L56.4346 19.3874L56.4492 19.608L56.2673 19.8432L56.0201 19.4242L56.0055 19.2037L56.2019 18.9684L56.1873 18.7626L56.1582 18.3289L55.94 18.3436L55.54 18.8067L55.5546 19.0125L55.14 19.2625L55.1836 19.9167L55.1982 20.1372L54.9654 19.9388L54.9509 19.7182L54.7399 19.5124L54.7254 19.2919L54.7108 19.0713L54.6963 18.8655L54.4781 18.8802L54.6745 18.645L54.4417 18.4465L53.8307 18.9243L53.598 18.7258L53.4089 18.9611L53.4234 19.1669L53.8526 19.3507L53.2343 19.6153L53.0016 19.4168L52.8052 19.6521L52.8343 20.0858L52.6161 20.1005L52.8488 20.299L52.4488 20.7474L52.2015 20.3431L52.0197 20.571L52.0342 20.7768L52.0488 20.9973L51.8451 21.2326L51.6123 21.0341L51.3941 21.0488L51.4087 21.2693L51.1759 21.0708L50.9577 21.0855L50.7759 21.3134L50.7904 21.5119L50.5722 21.5266L50.3759 21.7766L50.405 22.1956L50.6377 22.3867L50.6668 22.8351L50.434 22.6219L50.2013 22.4235L49.9831 22.4382L49.8158 22.9013L49.554 22.4676L49.3649 22.7028L49.3939 23.1365L49.6267 23.5555L49.6412 23.754L49.423 23.5702L49.1757 23.1512L49.2048 23.5849L49.0157 24.0187L48.783 23.8202L48.7539 23.4159L48.5502 23.6364L48.5939 24.2686L48.3975 24.2833L48.1647 24.298L47.9829 24.5185L48.2011 24.7391L48.0193 24.967L47.8156 25.1801L47.8302 25.4007L48.0629 25.5918L47.8593 25.8344L47.2119 25.8785L47.1974 25.6506L47.001 25.8932L47.0155 26.099L47.0446 26.5328L47.0592 26.7312L46.8919 27.1797L46.8628 26.7459L46.8337 26.3416L46.8191 26.1137L46.6228 26.3563L46.4046 26.371L46.1936 26.3857L45.99 26.6063L46.2082 26.5916L46.4337 26.7753L46.4482 27.0106L46.2155 26.79L46.0191 27.04L45.7863 26.8195L45.5681 26.8342L45.5972 27.2679L45.4081 27.5178L46.0263 27.2385L46.2591 27.459L46.2736 27.6575L45.8445 27.6869L45.6263 27.7016L45.4372 27.9368L45.4517 28.1574L45.8663 28.128L45.8954 28.547L45.6772 28.5617L45.4736 28.5764L45.2772 28.8116L45.0808 29.0469L44.6371 28.8631L44.4407 29.0983L44.4553 29.3188L44.4698 29.5247L44.2734 29.5394L44.0698 29.7599L44.3025 29.9804L44.0989 30.2157L43.6697 30.2451L43.9025 30.4436L44.1352 30.6421L44.3389 30.4068L44.368 30.8258L43.9316 30.8552L43.7134 30.8699L43.7279 31.0831L43.9607 31.2743L43.7643 31.5095L43.5461 31.5242L43.3497 31.7668L43.1461 31.9873L43.3788 32.2005L43.3934 32.3916L43.197 32.6269L42.986 32.421L42.9715 32.2299L42.7678 32.6489L42.7824 32.8695L43.0151 32.8548L43.0442 33.2885L42.826 33.5237L42.6296 33.5384L42.6587 33.9574L42.4624 34.1927L42.2442 34.2074L42.2587 34.4132L42.4769 34.3985L42.4914 34.6264L42.506 34.8469L42.3023 35.0675L41.8732 34.891L41.8587 34.6705L41.6259 34.4573L41.4295 34.6999L41.2331 34.9351L41.0077 34.9498L40.804 34.9645L40.8331 35.3836L40.6149 35.6041L40.4622 36.0525L40.244 36.0672L40.0258 36.0819L40.0403 36.3171L40.0694 36.7215L39.8366 36.5303L39.633 36.7509L39.4366 36.9935L39.2039 36.7803L39.022 37.0229L38.8038 37.2434L38.6074 37.2581L38.6365 37.6918L38.4038 37.4933L38.1856 37.508L38.4183 37.7065L38.4329 37.9271L38.2147 37.9418L37.9819 37.7433L37.7928 37.9785L37.5746 37.9932L37.3491 38.0079L37.1455 38.0226L37.16 38.2358L37.3928 38.6401L37.1891 38.6548L36.9564 38.6695L36.5127 38.4857L36.3236 38.5004L36.1272 38.7357L36.3599 38.9415L36.3745 39.162L36.1563 39.1767L35.7271 39.2062L35.5308 39.6546L35.5017 39.2209L35.298 39.2356L35.1016 39.4708L34.8907 39.265L34.658 39.2797L34.4616 39.2944L34.4761 39.5149L34.4907 39.7354L34.7016 39.9192L34.9343 39.9045L34.9489 40.125L34.7161 40.1398L34.5343 40.3676L34.0906 40.397L34.1052 40.6029L34.3525 40.8161L34.367 41.0219L33.9233 40.8455L33.9379 41.0513L33.9524 41.2718L34.1779 41.6761L34.6216 41.6467L34.6361 41.882L34.4179 41.8967L33.9742 41.6908L33.9888 41.9261L34.0033 42.1246L34.2288 42.5289L34.4761 42.7274L34.2579 42.9626L34.047 42.7568L33.8506 42.992L33.8651 43.2125L34.2943 43.3963L34.0979 43.411L33.8797 43.4257L33.8942 43.6463L34.127 43.8447L34.3379 44.0359L34.7816 44.0065L35.1962 43.7712L34.7961 44.227L34.5925 44.4402L34.3743 44.6901L34.8471 45.0944L34.6289 45.1091L34.3961 45.1238L34.2143 45.337L33.9815 45.1532L33.7779 45.1679L33.5815 45.587L33.596 45.8148L33.4215 46.2486L33.6397 46.4617L34.0252 45.7781L34.4397 45.7487L34.4543 45.9545L34.4834 46.4029L34.287 46.4176L34.3161 46.8367L34.1124 47.0572L34.0979 46.8587L33.9088 47.0719L33.9233 47.2851L33.9524 47.7188L33.967 47.9393L34.4107 48.3289L35.0725 48.498L34.658 48.9538L35.1162 49.1523L35.298 48.9097L35.3271 49.3434L35.9744 49.2993L36.4036 49.2699L36.8182 49.0347L36.8327 49.2405L37.2182 49.0052L37.4291 48.7627L37.5964 48.3289L37.8146 48.0937L38.4474 47.8291L38.4329 47.6306L38.622 47.3953L39.0511 47.3659L39.0657 47.5865L39.2911 47.7703L39.7057 47.535L39.6766 47.0939L40.0621 46.6308L40.033 46.1971L39.8075 46.0207L40.2076 45.5429L40.4112 45.3223L40.6076 45.0797L40.8258 45.065L40.8549 45.4987L40.6585 45.734L40.4403 45.7487L40.4694 46.1677L40.6876 46.153L41.335 46.5426L40.9786 47.0057H40.964L40.9931 47.4468L41.0077 47.6453L41.0368 48.079L41.0513 48.2995L41.0659 48.5054L41.0804 48.7333L41.0949 48.9391L41.3132 48.9244L41.3422 49.3581L41.5168 49.1302L41.7641 49.3287L41.5604 49.7771L41.575 49.9756L41.5895 50.1888L41.6041 50.3946L41.6332 50.843L41.6477 51.0489L41.895 51.2474L41.6768 51.4826L41.7059 51.9016L41.9532 52.1001L42.1569 52.0854L42.2005 52.7396L42.6587 52.9087L42.6733 53.1292L42.6878 53.3424L42.4696 53.3571L42.4842 53.5777L42.2732 53.7982L42.2878 54.0187L42.3023 54.2393L42.5424 54.4231L42.5569 54.6583L42.7824 54.8421L42.7969 55.0626L42.826 55.4963L42.6296 55.7316L42.8624 55.9227L43.0661 55.7022L43.2988 55.8933L43.917 55.6433L44.1425 55.8345L44.3389 55.8198L44.5717 55.8051L44.5571 55.5992L44.528 55.1655L44.4989 54.7318L44.6808 54.5186L44.899 54.5039L45.1172 54.4892L45.3135 54.2393L45.0953 54.254L45.299 54.0408L45.7136 53.7909L46.1427 53.982L46.1573 54.1805L46.3755 54.1658L46.8046 54.1364L47.0228 54.1217L46.9937 53.7026L46.9792 53.4821L47.3501 52.8132L47.321 52.3941L47.5174 52.1589L47.7138 51.909L47.6992 51.7105L47.481 51.7252L47.6629 51.2694L47.8665 51.0562L47.6338 50.8577L47.6192 50.6372L47.6047 50.4314L47.8011 50.1888L47.7865 49.9683L47.9683 49.5345L47.9538 49.336L47.9393 49.1008L47.6992 48.6965L48.1138 48.4466L47.4519 48.2848L47.6483 48.0422L48.092 48.2407L48.3102 48.226L48.6957 47.7629L48.6811 47.5424L48.6666 47.3218L48.8848 47.3071L49.103 47.2924L49.3358 47.4909L49.5249 47.0425L49.7067 46.8293L50.1213 46.5794L49.6776 46.3956L49.6631 46.1751L49.8813 45.9398L50.0776 45.9251L50.4631 45.2709L50.2304 45.0577L50.2013 44.6387L49.8013 44.8739L49.7867 44.6681L49.7722 44.4402L49.5249 44.2491L49.3139 44.0653L49.2994 43.8447L49.2848 43.6242L48.8703 43.8741L48.6375 43.6757L48.4048 43.4551L48.3757 43.0361L48.1429 42.845L48.1284 42.6244L47.9174 42.4186L48.1138 42.4039L48.3102 42.1687L48.2811 41.735L48.2666 41.5144L48.2375 41.0954L48.4557 41.0807L48.2302 40.8969L48.4266 40.647L48.3975 40.228L48.5939 39.9927L48.5648 39.559L47.9174 39.6031L47.8883 39.1841L48.0847 38.9489L48.5284 39.1326L48.7248 38.8974L48.943 38.8827L49.1248 38.6695L49.3576 38.6548L49.7576 38.4049L49.5249 38.2064L49.9249 37.7359L49.6922 37.5374L50.1213 37.508L50.3031 37.0743L50.5213 37.2802L50.9359 37.0302L50.7177 36.8244L50.9068 36.5891L51.125 36.5744L51.5396 36.3245L51.5105 35.8908L51.496 35.6849L51.4814 35.4865L51.6633 35.038L51.8596 35.0233L52.0415 34.5749L52.2379 34.3397L52.0051 34.1486L51.9906 33.928L51.9615 33.4943L51.9324 33.0606L52.136 32.84L52.1215 32.6195L52.1069 32.4063L52.3033 32.1711L52.7397 32.1417L52.7106 31.708L52.6815 31.289L52.667 31.0831L52.8634 31.0684L53.0961 31.2596L53.4962 30.7964L53.7289 31.0096L53.9471 30.9949L54.1653 30.9802L54.3835 31.1713L54.5654 30.9508L54.5363 30.5024L54.3035 30.3113L54.078 29.9069L54.0635 29.6864L54.0344 29.2527L54.0053 28.819L54.1871 28.5984L53.9762 28.3926L53.9617 28.1721L53.7289 27.9736L53.7144 27.753L53.6998 27.5472L53.6853 27.3267H53.6998L53.7144 27.5399L53.7289 27.7457L53.7435 27.9662L53.9762 28.1647L53.9908 28.3852L54.209 28.5911L54.0199 28.8116L54.0489 29.2453L54.078 29.6791L54.0926 29.8996L54.3253 30.3039L54.5581 30.495L54.5872 30.9435L54.8054 30.9287L55.0381 31.1199L55.4673 31.0905L55.4818 31.3184L55.6927 31.4948L55.7073 31.7153L55.7218 31.9359L55.7509 32.3696L55.7655 32.5901L55.991 32.7812L56.0055 33.0018L55.7873 33.0165L55.5909 33.0312L55.3727 33.0459L55.3873 33.2664L55.0018 33.9501L55.0163 34.1559L54.8272 34.5896L54.6308 34.8396L54.2453 35.3027L54.2599 35.5012L54.2744 35.707L53.8598 35.9643L53.6562 36.1848L53.4598 36.4201L53.4743 36.6406L53.5034 37.0743L53.1034 37.3022L52.8707 37.1184L52.6524 37.1331L52.6815 37.5521L52.2815 38.0226L52.3106 38.4563L52.3251 38.6548L52.5579 38.8533L52.587 39.2723L52.3906 39.5149L52.4052 39.7207L52.8488 39.9045L52.8634 40.103L52.8925 40.5514L52.9361 41.1763L52.9652 41.61L52.5506 41.8599L52.5797 42.2936L52.5943 42.5142L53.067 43.1096L53.6998 43.0655L53.9326 43.286L54.3617 43.2566L54.5799 43.2419L54.8272 43.661L54.8563 44.0653L55.0891 44.2785L55.3073 44.4696L55.9546 44.4255L56.1728 44.4108L56.3546 43.9624L56.5365 43.7418L56.7838 44.1608L56.9801 43.9182L57.1838 43.6977L57.6057 43.4625L58.2166 43.1978L58.4348 43.1831L58.6458 43.1684L58.6312 42.9479L58.6167 42.7127L58.8203 42.4995L59.0676 42.9185L59.2567 42.6685L59.6713 42.4333L59.8532 41.9996L60.0859 42.1907L60.5296 42.1613L60.7187 42.1466L60.9224 41.9261L61.1333 41.4115L61.1696 41.882L61.5842 41.8526L61.9988 41.6026L62.1734 41.5879L62.1879 41.8085L62.0425 42.2422L62.057 42.4627L62.4571 42.4333L62.6753 42.6612L63.1335 42.8303L63.308 42.6171L63.7226 42.5877L63.9772 42.573L64.1809 42.7641L64.3991 42.7494L64.4282 43.1684L64.2099 43.1831L63.7663 43.2125L63.3517 43.2419L62.7262 43.286L62.7407 43.5066L62.5371 43.5213L62.5225 43.3008L62.3116 43.536L62.3261 43.7345L62.3407 43.955L62.3552 44.1682L62.1807 44.1829L61.9334 43.7639L61.737 43.9991L61.7515 44.2123L61.7661 44.4328L61.7952 44.8518L61.6061 44.8665L60.7478 44.9254L60.5441 44.9401L60.3114 44.7416L60.115 44.7563L59.7004 45.0062L59.6859 44.7857L59.2567 44.8151L59.0676 44.8298L58.864 44.8445L58.6385 44.8592L58.4421 45.0944L58.2385 45.1091L57.8239 45.1385L57.5911 45.1532L57.3947 45.1679L57.162 45.1826L57.1765 45.3811L57.1911 45.6164L57.002 45.6311L56.7838 45.6458L56.5656 45.6605L56.3692 45.8957L56.3837 46.0942L56.3983 46.3147L56.4128 46.5353L56.842 46.5059L56.8565 46.6823L56.871 46.9028L56.6528 46.9175L56.6674 47.116L56.711 47.785L57.1693 48.1599L57.3584 48.1452L57.3438 47.954L57.562 47.7188L57.7584 47.7041L58.0057 47.9026L57.802 48.3436L57.8311 48.7627L57.8457 48.9244L57.6202 48.9979L57.6348 49.2184L57.6493 49.439L57.6638 49.6448L57.6929 50.0638L57.7075 50.2844L57.7366 50.7181L57.5402 50.9533L57.3511 51.1738L57.1329 51.1885L56.6747 50.7989L56.4565 50.6152L56.4274 50.1667L55.9691 49.7771L55.7728 49.7918L55.5546 49.6007L55.54 49.3802L55.1254 49.4096L54.7108 49.6595L54.4926 49.88L54.2962 49.8947L54.1362 50.3285L54.1653 50.7769L53.9762 51.2106L53.7726 51.6223L53.6489 52.9308L53.6926 53.563L53.7071 53.7835L53.7216 53.9893L53.9835 54.6289L54.0271 55.2831L54.4708 55.2537L54.4854 55.4449L54.689 55.6507L54.8854 55.636L55.1327 55.8345H55.2345L55.1618 55.9153L54.7472 55.9447L54.4926 55.9594H54.4344L54.3617 55.7977L54.1726 55.5625L53.8598 55.6433L53.6416 55.658L53.6562 55.8565L53.8744 55.8418L53.6926 56.2755L53.4962 56.5108L53.0816 56.5402L53.067 56.3197L53.0525 56.1138L53.0379 55.8933L52.4197 56.3638L52.4342 56.5843L52.0851 56.9151L52.4706 57.018L52.4852 57.2165L52.2888 57.4664L52.0851 57.4811L52.0997 57.7017L52.1142 57.9002L52.1288 58.1207L51.6996 58.1501L51.4814 58.1648L51.4669 57.9443L51.2487 57.959L50.6304 58.2236L50.3904 58.0251L50.3759 57.8266L50.3613 57.6061L50.3468 57.3709L50.1286 57.1871L50.114 56.9666L49.4667 57.0107L49.2703 57.2459L49.0521 57.2606L48.623 57.0695L48.4266 57.3047L48.2084 57.3194L48.2229 57.5179L48.0047 57.5326L47.8011 57.7825L47.5683 57.562L47.3865 57.8119L47.1901 58.0472L46.9864 58.2604L46.7682 58.2751L46.5718 58.5103L46.3536 58.525L46.3682 58.7455L46.1645 58.7602L45.7354 58.7896L45.5172 58.8043L45.1026 59.0543L44.9208 59.5101L44.7389 59.7232L44.9499 59.907L44.9644 60.1423L44.9062 60.1202L44.5935 60.1423L44.3462 59.8556V60.0393L44.3098 59.5542L43.6625 59.5983L43.6334 59.1572L43.6043 58.7235L43.1897 58.7529L42.9642 58.7676L42.9497 58.5471L42.7315 58.3633L42.7169 58.1427L42.4914 58.1574L42.3023 58.3853L42.0769 58.4L41.8732 58.4147L41.4586 58.65L41.044 58.8999L40.8331 58.6941L40.8477 58.9146L40.6294 58.9293L40.2003 58.9587L39.9821 58.9734L39.5312 58.7896L39.7639 58.7749L39.7494 58.5765L39.953 58.5618L39.9385 58.3412L39.9239 58.106L39.7203 58.1207L39.4875 58.1354L39.3057 58.3853L39.0584 57.9663L38.8547 57.981L38.6293 57.9957L38.6147 57.7752L38.411 57.7899L38.1856 57.8046L38.171 57.5914L38.382 57.3562L38.1419 57.165L37.9092 56.9666L37.8437 56.9151L37.8583 56.9004L37.9674 56.7754L38.1783 56.7607L37.9455 56.5622L37.7055 56.3638L37.9165 56.1432L38.1347 56.1285L37.9019 55.93L37.8874 55.7242L38.1056 55.7095L38.091 55.4816L38.0765 55.2758L38.2947 55.2611L38.4765 55.0332L38.7093 55.0185L38.6947 54.798L39.0948 54.548L39.2766 54.1143L39.0438 53.9158L39.2402 53.6806L39.4584 53.6659L39.473 53.8864L39.6912 53.8717L39.8803 53.6365L39.8657 53.4159L39.8512 53.1954L39.633 53.0116L39.4148 53.0263L39.1966 53.041L39.182 52.8205L38.9711 52.8352L38.9566 52.6147L39.1529 52.3794L39.3711 52.3647L39.1384 52.1736L39.1238 51.9457L38.9056 51.9604L38.7093 51.9751L38.7238 52.203L38.2801 52.2324L38.0837 52.2471L37.8801 52.4676L38.1128 52.6661L38.1274 52.8867L37.8946 52.6882L37.6983 52.9234L37.6837 52.7029L37.6692 52.4823L37.4437 52.4971L37.2691 52.7249L37.2837 52.9455L37.0655 52.9602L36.8182 52.7617L36.6218 52.7764L36.6072 52.5559L36.389 52.5706L36.4036 52.7911L36.2072 53.0263L36.2217 53.2469L36.2508 53.6659L36.2654 53.8791L36.2799 54.0996L36.2945 54.3201L36.309 54.526L36.3236 54.7465L36.1272 54.9817L36.3599 55.1802L36.5781 55.1655L36.5927 55.3861L36.8182 55.5772L36.8327 55.8051L36.8473 56.0109L36.8764 56.4299L36.8909 56.621H36.8327L36.8618 57.0621L36.8764 57.2827L37.0873 57.4738L37.1018 57.6943L36.6872 57.9443L36.4909 57.959L36.5054 58.1795L36.7018 58.1648L36.7163 58.3633L36.7309 58.5985L37.1746 58.7823L36.9927 58.9955L37.2037 59.2013L36.7745 59.2307L36.3599 59.2601L36.3745 59.4806L36.4036 59.9144L36.4181 60.1349L36.2145 60.3481L36.229 60.5466L35.989 60.157L35.9744 59.9364L35.9599 59.7159L35.7417 59.7306L35.7562 59.9511L35.5526 59.9658L35.538 59.7453L35.7271 59.5101L35.2762 59.3263L34.8616 59.3557L34.4325 59.3851L34.2143 59.3998L34.2288 59.6203L34.0324 59.8556L34.047 60.0761L34.2652 60.0614L34.2797 60.2819L34.5052 60.4657L34.4761 60.4951L34.2579 60.3113L34.047 60.5319L33.8433 60.5466L33.7851 59.6938L33.5669 59.7085L33.3487 59.7232L33.1669 59.9732L32.7523 60.2084L32.7378 60.0026L32.7232 59.7673L32.5123 60.0173L32.3159 60.032L32.0977 60.0467L31.6758 60.2819L31.4795 60.5172L31.494 60.7156L31.5086 60.9362L31.5231 61.1567L31.5376 61.3773L31.5667 61.811L31.1812 62.2594L30.963 62.2741L30.7448 62.2888L30.7157 61.8698L30.9121 61.6272L30.6939 61.6419L30.8976 61.4214L31.094 61.1861L31.0794 60.9656L30.8467 60.7671L30.4321 60.7965L30.2357 61.2449L30.2648 61.6639L30.0757 61.9065L30.0902 62.1124L29.8648 62.1271L29.8793 62.3476L29.6902 62.5828L29.2611 62.6122L29.2902 63.046L29.5011 63.0313L29.5156 63.2297L29.1156 63.4797L29.0865 63.0607L28.8537 63.0754L28.8683 63.2738L28.8828 63.4944L28.9119 63.9134L29.1447 63.8987L29.3483 64.1045L29.1738 64.1192L28.9701 64.3324L28.9847 64.5529L28.5555 64.5824L28.3373 64.5971L28.1409 64.6118L28.1264 64.3912L27.9009 64.2074L27.6827 64.2221L27.6682 63.9869L27.45 64.0016L27.2536 64.2516L27.0208 64.031L27.0354 64.2663L26.6353 64.4941L26.6499 64.7147L26.6644 64.9499L26.679 65.1116L26.6644 65.0969L26.6499 64.8985L26.6353 64.6853L26.6208 64.4647L26.1917 64.4941L25.9807 64.5088L25.7625 64.5235L25.5443 64.5382L25.3479 64.5529L25.1516 64.7882L25.1661 65.0014L25.1807 65.1998L24.9915 65.4277L25.0061 65.6483L25.0352 66.0893L25.0497 66.3099L24.8243 66.3246L24.6061 66.3393L24.4024 66.5525L24.1842 66.5672L23.7842 66.8171L23.3696 67.0523L22.9404 67.0817L22.5259 67.1112L22.5404 67.339L22.7586 67.3243L23.1877 67.5008L23.4205 67.6992L23.2096 67.714L23.2241 67.9418L22.7877 67.7434L22.3586 67.7728L21.9294 67.8022L21.9149 67.5816L21.4857 67.611L21.0566 67.4346L20.6129 67.2361L20.6275 67.464L20.1765 67.2655L20.3802 67.045L20.1474 66.8465L20.1329 66.648L20.3365 66.4128L20.1183 66.4275L19.922 66.4422L19.6892 66.2364L19.471 66.2511L19.4856 66.4716L19.2673 66.7068L19.2964 67.1259L19.311 67.3317L19.5728 67.7507L19.3546 67.9859L19.3692 68.2138L19.3837 68.405L19.631 68.6255L19.6456 68.824L19.2164 68.8534L18.9691 68.6696L18.7728 68.6843L18.5691 68.699L18.7582 68.4491L18.3436 68.4785L17.9145 68.5079L17.689 68.3314L17.7036 68.5226L17.289 68.552L17.2744 68.3609L17.2453 67.9124L17.0126 67.9271L16.8162 67.9418L16.8017 67.736L16.358 67.5375L16.1616 67.7801L16.1761 67.9859L15.7615 68.0153L15.747 67.8095L15.3179 67.8389L15.0851 67.8536L14.8669 67.6404L14.656 67.8904L14.4669 67.9051L14.2487 67.9198L14.0305 67.9345L14.045 68.1403L14.2632 68.1256L14.4814 68.1109L14.6705 68.0962L14.6851 68.3167L14.6996 68.5446L14.5105 68.5593L14.5251 68.7505L14.3141 68.7652L14.0959 68.7799L13.8995 69.0298L14.1178 69.0151L14.3432 69.1989L14.5905 69.6179L14.576 69.3974L15.0051 69.5811L14.9906 69.3606L15.1869 69.3459L15.2015 69.5664L15.6597 69.9561L15.8925 69.9413L15.907 70.1619L16.1034 70.1472L16.1179 70.3604L16.1325 70.5809L16.5689 70.5515L16.998 70.5221L16.7798 70.7573L17.0126 70.7426L17.2235 70.9264L17.0562 71.3748L17.2526 71.3601L17.4999 71.5586L17.5144 71.7791L17.7036 71.7644L17.7181 71.9629L17.3326 72.426L17.3472 72.6466L17.609 73.0509L17.7981 73.0362L17.8272 73.4699L18.0672 73.6684L18.0818 73.8669L18.5255 74.0506L18.7218 73.8154L18.7364 74.0286L18.7509 74.2491L18.5546 74.4844L18.7728 74.4697L18.5764 74.7049L18.6055 75.1386L18.62 75.3445L18.4236 75.5797L18.4382 75.8002L18.6564 75.7855L18.6709 76.0061L18.6855 76.2119L18.9182 76.4104L18.9328 76.6309L18.9619 77.0646L18.9764 77.2631L18.7509 77.0793L18.7364 76.8441L18.7218 76.6456L18.4891 76.4471L18.4745 76.2266L18.2491 76.0355L18.2345 75.8149L18.0236 76.0502L18.0672 76.6897L18.0818 76.8882L17.9145 77.1381L17.9436 77.5572L17.7108 77.5719L18.14 77.763L17.9654 77.9835L17.5363 78.0129L17.5508 78.2408L17.5654 78.4466L17.3472 78.6819L17.3617 78.9024L17.1653 78.9171L17.1944 79.3361L16.9762 79.3508L16.7726 79.5861L16.7871 79.8066L16.3871 80.2771L16.0161 80.7108H15.9725L15.7252 80.5123L15.3251 80.5417L14.8815 80.3579L14.6414 80.1595L14.4378 80.1742L14.2123 80.1889L13.7977 80.2183L13.565 80.0198L13.3177 79.6155L12.9031 79.6449L12.6703 79.4464L12.474 79.4611L12.0448 79.4905L11.8121 79.5052L11.6011 79.3141L11.3684 79.3288L11.172 79.3435L10.9538 79.1303L10.7138 78.9318L10.5101 78.9465L10.0664 78.7701L9.84097 78.7848L9.40456 78.5863L9.39001 78.3952L8.96088 78.4246L8.72813 78.204L8.52447 78.2188L8.10989 78.2482L7.86259 78.0644L7.62984 77.8659L7.2298 78.1158L6.96796 77.6968L6.75703 77.491L6.74248 77.2705L6.72793 77.0646L6.31335 77.2999L6.09514 77.3146L5.86967 77.1234L5.88421 77.3293L5.68056 77.344L5.46236 77.3587L5.24415 77.3734L5.4769 77.5719L5.28052 77.8071L5.08414 78.0423L5.06959 77.8218L4.83684 77.6233L4.61864 77.638L4.40043 77.6527L4.18223 77.4469L4.00039 77.8953L3.76764 77.6968L3.57126 77.9321L3.37488 78.1673L3.60763 78.3658L3.62217 78.5643L3.82583 78.3511L3.84038 78.5496L3.64399 78.7995L4.07313 78.7701L4.08767 78.9612L3.89129 79.2038L3.90584 79.4096L3.70946 79.6449L3.92766 79.6302L3.94221 79.8581L3.73855 80.0786L3.5058 79.8875L3.30214 80.108L3.33124 80.527H3.36033L3.37488 80.7108L3.38942 80.946L3.40397 81.1445L3.22213 81.3724L3.23668 81.5929L3.26578 82.034L3.06212 82.2472L2.87301 82.4824L2.9021 82.9161L2.69117 83.1367L2.50206 83.3719L2.53116 83.8056L2.33477 84.0409L2.15294 84.4893L1.94928 84.6951L1.7529 84.9377L1.76745 85.1435L1.58561 85.3714L1.38195 85.8199L1.18557 85.8346L0.749165 85.864L0.545508 86.0771L0.560055 86.2977L0.574602 86.5182L0.589149 86.7387L0.407313 86.9666L0.21093 87.2019L0.225477 87.4004L0.240024 87.6209L0.65461 87.5915L0.88736 87.79L1.09102 87.7753L1.12011 88.209L1.13466 88.4295L0.945547 88.6647L0.741891 88.8706L0.756438 89.1058L0.574602 89.319L0.792805 89.5395L0.625516 89.9733L0.640063 90.1938L0.42186 90.2085L0.203656 90.429L0.218203 90.6569L0.0509141 91.0906L0 91.2377L0.0145469 91.4508L0.247297 91.4361L0.44368 91.4214L0.661883 91.1862L0.894633 91.3847L0.90918 91.5905L1.10556 91.5758L1.31649 91.5611L1.5347 91.7669L1.97838 91.9507L2.22567 92.1492L2.40751 91.914L2.42206 92.1345L2.64026 92.1198L3.22941 91.8699L3.44034 91.8552L3.67309 92.0757L3.89857 92.2595L4.11677 92.4653L4.13132 92.6858L4.575 92.8623L4.80775 93.0754L4.82229 93.2813L4.62591 93.5165L4.84411 93.5018L5.06232 93.4871L4.87321 93.9208L4.88775 94.1561L4.45862 94.1855L4.6841 94.3692L4.71319 94.8103L4.94594 95.0088L5.16414 94.9941L5.38962 95.1779L5.63692 95.5969L5.82603 95.3617L5.81148 95.1411L6.22607 94.9059L6.6552 94.8765L6.85158 94.6412L7.06979 94.6265L7.49892 94.8177L7.71712 94.803L7.89896 94.3472L8.31354 94.3178L8.75722 94.5089L8.98997 94.7074L9.43365 94.678L9.65913 95.0823L10.0737 95.0529L10.7211 95.0088L10.9393 94.9941L11.3829 95.1779L11.572 94.9426L12.0012 94.9132L12.2412 95.1117L12.4449 95.097L12.4594 95.3176L12.6558 95.3028L12.874 95.0676L12.8594 94.8471L12.8449 94.6265L13.2595 94.3913L13.2449 94.1708L13.6741 94.1414L13.8559 93.9061L14.285 93.8767L14.4887 93.862L14.9324 94.0531L15.1506 93.8179L15.5506 93.568L15.5215 93.1343L15.7106 92.9211L15.9361 92.9064L16.1252 92.6711L16.1107 92.4506L16.5253 92.2154L16.7216 92.2007L17.1508 92.1712L17.5508 91.7081L17.3399 91.5023L17.3253 91.2818L17.078 91.098L17.0635 90.8627L17.0489 90.6643L17.0199 90.2453L16.9908 89.8115L17.209 89.5763L17.3908 89.3484L17.8054 89.0985L18.1909 88.65L18.4091 88.6353L18.6273 88.4001L19.0273 87.937L19.2092 87.7238L19.6237 87.4592L19.6092 87.2607L19.8201 87.246L19.8056 87.0401L20.002 86.7976L20.2202 86.7829L20.6202 86.7535L21.0639 86.724L21.4785 86.6946L21.7112 86.6799L21.9076 86.6652L22.1258 86.6505L22.5259 86.4006L22.7586 86.3859L22.9404 86.1654L23.3696 86.136L23.5878 86.1213L23.7842 85.886L24.0024 85.8713L24.1987 85.6361L24.3951 85.4008L24.3806 85.2024L24.5697 84.9671L24.5551 84.7466L24.526 84.3055L24.4897 84.2614L24.5333 84.2173L24.4315 84.1511L24.366 84.0335L24.3151 83.9232L24.5115 83.688L24.2788 83.4895L24.4606 83.0411L24.446 82.8353L24.6424 82.6L24.8606 82.5853L25.057 82.3501L25.2752 82.3354L25.4716 82.3207L25.6898 82.306L25.8862 82.0708L26.0826 81.8355L26.308 81.8208L26.5262 82.0267L26.759 82.2251L26.9554 82.2104L27.3845 82.181L27.4136 82.6147L27.61 82.3795L27.8282 82.3648L28.0246 82.1296L28.2428 82.1149L28.2573 82.3354L28.2719 82.5559L28.4755 82.5412L28.6937 82.5265L28.7083 82.7324L28.7228 82.9529L28.9192 82.7177L29.152 82.9161L29.3847 83.1146L29.3993 83.3352L29.632 83.5336L29.8357 83.5189L30.0539 83.5042L30.2793 83.4895L30.483 83.4748L30.7085 83.4601L30.8976 83.2322L30.883 83.0117L30.8685 82.7912L31.0867 82.7765L31.2831 82.7618L31.5013 82.7471L31.4867 82.5265L31.7195 82.5118L31.9159 82.4971L31.9304 82.7177L32.2868 82.3134L32.4686 82.2104L32.665 81.9605L32.8832 81.9458L33.1014 81.9311L33.516 81.6959L33.7124 81.4606L33.6979 81.2401L33.8797 81.0122L34.0761 80.777L34.5052 80.7476L34.7234 80.7328L35.1816 81.1372L35.3635 80.9093L36.0399 81.2989L36.0254 81.0784L36.2217 80.8431L36.4399 80.8284L36.6581 80.8137L36.4618 81.049L36.4763 81.2695L36.7091 81.468L36.5054 81.6812L36.9491 82.0708L37.24 82.9382L37.5019 83.7615L37.7346 83.9674L38.2365 85.0039L38.4547 84.9892L38.9129 85.3935L39.1457 85.8125L39.3857 85.9816L39.6039 86.2021L40.2803 86.7902L41.6477 87.9884L41.8732 87.9737L42.106 88.3928L42.5351 88.3633L42.7824 88.7677L42.9788 88.5324L43.6552 89.1426L43.8952 89.3411L44.1134 89.5248L44.3098 89.5101L44.768 89.9144L45.0008 89.8997L45.2117 90.1056L45.2408 90.5246L45.2554 90.7525L45.2699 90.9436L45.7136 91.1494L45.9318 91.1347L46.1354 91.12L46.5937 91.3038L46.8119 91.4876L46.8264 91.7228L47.0519 91.9066L47.2919 92.5315L47.5683 93.1637L47.6119 93.8032L47.3938 94.0384L47.1974 94.0531L46.9792 94.0679L46.9937 94.2884L47.0083 94.5089L47.0228 94.7074L47.0373 94.9132L46.8482 95.1558L46.6446 95.3764L46.6591 95.6042L46.8846 95.7954L47.0883 95.7807L47.3065 95.766L47.5028 95.7513L47.7211 95.5307L47.9174 95.516L47.9029 95.2881L48.332 95.0529L48.3175 94.825L48.2884 94.4207L48.4848 94.1855L48.6739 93.9502L48.8703 93.715L49.0885 93.7003L49.2848 93.6856L49.5176 93.6709L49.503 93.4504L49.4885 93.2445L49.4739 93.024L49.4449 92.5903L49.4303 92.3697L49.4158 92.1492L49.1685 91.9654L48.7684 92.1933L48.5284 91.8478L48.4193 91.2891L48.4702 90.9363L48.6884 90.9216L48.6739 90.6863L48.8775 90.4805L48.6593 90.4952L48.8557 90.2526L49.0375 90.0321L49.2703 90.0174L49.4667 90.0027L49.4812 90.2085L49.9249 90.407L50.1431 90.3923L50.3613 90.3776L50.5795 90.3629L50.7977 90.3482L50.8123 90.5393L50.8268 90.7745L51.045 90.9804L51.0596 91.1788L51.3069 91.392L51.496 91.3773L51.7287 91.3626L51.9251 91.1127L51.896 90.6937L51.8669 90.2747L51.8524 90.0468L51.3941 89.8777L51.1759 89.4587L50.9359 89.2602L50.5068 89.0764L50.0776 89.1058L49.8449 88.922L49.634 88.7162L48.9575 88.5471L48.7466 88.3413L48.5139 88.1428L48.2957 88.1575L47.8811 88.1869L47.6483 87.9958L47.2046 87.812L46.9719 87.8267L47.1901 87.5915L47.3865 87.5768L47.6047 87.3415L47.5756 86.9078L46.8992 86.7535L46.7028 86.7682L46.07 86.8123L45.6409 86.8417L45.2117 86.6505L44.9499 86.2462L44.7317 86.0257L44.2734 85.6214L44.0116 85.2318L43.5825 84.8274L43.5534 84.3937L43.7425 84.1585L43.5097 83.7542L43.2479 83.3352L43.2333 83.1146L43.0151 82.9088L42.986 82.5045L42.7533 82.5192L42.3242 82.3207L41.8805 82.1369L41.6623 82.1516L41.2186 81.9752L41.2041 81.7473L40.9858 81.5709L40.9713 81.3356L40.724 80.9313L40.9204 80.6961L40.9058 80.4756L40.8913 80.255L41.0804 80.0345L41.2913 79.7992L41.2768 79.5787L41.0513 79.5934L40.8331 79.3876L40.8186 79.1891L40.6004 79.2038L40.7967 78.9539L41.0004 78.9392L40.9713 78.5201L41.4004 78.4907L41.6186 78.476L41.8368 78.4613L42.055 78.4466L42.2514 78.2114L42.4478 78.1967L42.4333 77.9982L42.666 77.9835L42.8697 77.9688L42.8842 78.1673L43.1242 78.3658L43.0951 77.9468L43.2988 77.9321L43.3424 77.8733L43.5243 77.9321L43.7134 77.6968L43.7279 77.9174L43.7425 78.1379L43.757 78.3511L43.5679 78.5863L43.3497 78.601L43.1461 78.8142L43.3788 79.0127L43.3934 79.2332L43.4225 79.6669L43.6552 79.8581L43.6697 80.0786L43.888 80.2844L44.0698 79.836L44.2734 79.6155L44.4553 79.1671L44.4407 78.9465L44.6589 78.9318L44.8917 79.1303L45.1244 79.3288L45.3354 79.5346L45.5827 79.9389L45.3936 80.3726L45.4081 80.6079L45.4372 81.0269L45.8663 80.9975L45.8809 81.2327L46.0991 81.218L46.3173 81.3945L46.5646 81.6076L45.9172 81.6517L46.15 81.8429L46.3682 82.0487L46.63 82.4677L46.8264 82.453L47.2846 82.8426L47.2992 83.0632L47.7429 83.2469L48.1575 82.997L48.3757 82.9823L48.8266 83.3866L49.2848 83.7762L49.5321 84.1952L49.9467 84.1658L50.194 84.5702L50.6377 84.7686L50.8559 84.7539L51.1032 85.1435L51.2996 85.1288L51.5323 85.3494L51.9615 85.32L52.1797 85.3053L52.427 85.4891L52.4415 85.7243L52.6452 85.9154L52.8707 85.9007L52.8997 86.3197L53.3143 86.2903L53.3289 86.5109L53.5398 86.4962L53.758 86.4815L53.7289 86.0624L53.7144 85.8493L53.6998 85.6508L53.6853 85.4155L53.6998 85.4008L53.7144 85.614L53.7289 85.8125L53.7435 86.033L53.7726 86.452L54.0053 86.6652L54.0199 86.8711L54.0344 87.0916L53.8162 87.1063L53.8307 87.3268L53.8453 87.54L53.8598 87.7459L53.8744 87.9664L53.8889 88.1869L53.918 88.6206L53.7144 88.8412L53.7289 89.0544L53.7435 89.2749L53.9762 89.4734L53.7798 89.7086L53.7944 89.9144L54.0126 89.8997L54.0271 90.1276L53.8089 90.1423L53.838 90.5613L54.2672 90.5319L54.4854 90.7378L54.9145 90.7084L54.929 90.9069L55.1763 91.3259H55.1472L55.3727 91.7375L55.6055 91.936L56.0201 91.9066L56.0346 92.1271L56.0637 92.5609L56.311 92.7593L56.4928 92.5241L56.7256 92.5094L56.922 92.4947L57.1547 92.48L57.1693 92.7005L57.1838 92.9064L56.7547 92.9358L56.5219 92.9505L56.3401 93.1784L56.5583 93.3842L56.5728 93.6047L56.5874 93.8253L56.8201 93.8106L57.2638 93.9796L57.4456 93.7665L57.6638 93.7518L57.8675 93.7371L57.8821 93.9355L58.2966 93.7003L58.5148 93.6856L58.7403 93.6709L59.1549 93.6415L59.3658 93.8253L59.6131 94.0164L59.5986 93.8106L60.0132 93.7812L60.2314 93.9723L60.4641 94.1855L60.9078 94.3619L60.726 94.6045L60.4932 94.6192L60.2896 94.8397L60.0714 94.6486L60.0568 94.4207L59.8313 94.2296L59.4168 94.4648L59.4022 94.259L59.2058 94.2737L58.9731 94.2884L58.784 94.3031L58.5585 94.3178L58.3548 94.5383L58.1366 94.553L57.9257 94.5677L57.722 94.5824L57.5038 94.5971L57.322 94.8397L57.3365 95.0456L57.5693 95.4646L57.7875 95.4499L58.0057 95.6337L58.2385 95.8542L58.253 96.06L58.2821 96.4937L58.0857 96.729L58.3112 96.9128L58.3257 97.1333L58.3403 97.3538L58.5876 97.7728L58.8058 97.7581L59.0313 97.7434L59.2058 97.5155L59.0022 97.3097L58.9876 97.0892L59.1622 96.8613L59.4095 97.0598L59.424 97.2803L59.4386 97.5008L59.4531 97.7214L59.664 97.9125L59.8968 97.8978L60.1295 98.3168L60.3478 98.3021L60.3187 97.8684L60.3041 97.6626L60.2896 97.442L60.4787 97.2068L60.5078 97.6405L60.726 97.6258L60.7551 98.0448L60.9878 98.0301L61.8461 97.9713L61.8315 97.7508L61.3879 97.5744L61.3733 97.3538L61.126 97.1553L61.0969 96.7216L60.9005 96.7363L60.6387 96.332L60.4059 96.1335L60.3768 95.7145L60.595 95.6998L60.8423 95.8909L60.8569 96.1115L61.0678 96.3173L61.3006 96.3026L61.7152 96.0527L62.1152 95.8027L62.0861 95.369L61.6861 95.6337L61.4533 95.6484L61.2351 95.4278L61.2206 95.2293L61.4024 95.0014L61.8024 94.5457L62.0206 94.531L62.2679 94.9353L62.7116 95.1191L62.6971 94.8985L62.6825 94.678L62.6534 94.2443L62.6243 93.8106L62.3989 93.8253L61.9697 93.6488L61.7224 93.2445L61.526 93.2592L61.0824 93.0754L60.6387 92.8917L60.195 92.9211L59.9768 92.7152L60.1659 92.4947L60.3623 92.2595L60.3478 92.0389L60.1295 92.0536L59.8968 91.6346L60.0859 91.3994L60.3041 91.3847L60.7332 91.3553L60.9805 91.5538L60.9951 91.7743L61.0096 91.9948L61.206 91.9801L61.4097 91.5317L61.1769 91.5464L60.5005 90.951L60.2386 90.5319L59.8095 90.3629L59.5768 90.1644L59.5477 89.7454L59.5331 89.5175L59.5186 89.3117L59.3076 89.1058L59.4895 88.8706L59.8895 88.6206L60.1077 88.6059L60.1368 89.0397L60.3841 89.2381L60.6169 89.6572L60.8787 90.0615L61.3224 90.2453L61.7515 90.4143L61.737 90.2159L61.3078 90.0321L61.0605 89.8115L61.046 89.6204L61.0315 89.3925L61.2788 89.6057L61.4897 89.7821L61.7224 90.0027L62.3843 90.1717L62.3698 89.9585L62.1443 89.9733L61.9115 89.5689L61.6788 89.3558L61.897 89.3411L62.1006 89.3264L62.1297 89.7454L62.5589 89.716L62.9735 89.4954L63.1698 89.2528L62.9516 89.2675L62.508 89.0911L62.0643 88.9073L61.8461 88.7015L61.6133 88.503L61.5988 88.2898L61.817 88.2751L62.4498 88.231L62.668 88.2163L62.6534 88.0178L62.6389 87.8047L62.8353 87.5694L63.068 87.7679L63.2789 87.9737L63.7226 87.9443L63.919 87.7091L63.6863 87.5106L63.9045 87.4959L64.3045 87.4665L64.7482 87.6503L65.3955 87.6062L65.6283 87.8047L65.8247 87.79L65.8101 87.8047L66.0429 88.0031L66.472 87.9737L66.6902 87.959L66.8793 87.7238L66.8938 87.9443L66.9084 88.1649L66.7047 88.1796L66.3047 88.6427L66.5375 88.8338L66.7411 88.6133L67.3593 88.3413L67.563 88.1208L67.9776 87.8708L67.963 87.6503L68.1449 87.4371L68.5595 87.1725L68.7631 86.9593L68.9595 86.7093L69.3741 86.4888L69.5705 86.4741L70.0142 86.4447L70.4287 86.4153L70.6469 86.4006L70.8506 86.1654L70.8215 85.7316L70.6033 85.7463L70.1596 85.5626L69.9632 85.5773L69.4905 85.173L69.0759 85.2024L69.0613 84.9965L69.0468 84.7833L68.8213 84.5996H68.7486L68.734 84.4011L68.7049 83.9674L68.4867 83.9821L68.2613 83.7983L68.2467 83.5777L67.8176 83.6072L67.6285 83.8424L67.5994 83.4087L67.5848 83.1881L67.7739 82.9676L67.9921 82.9529L67.9776 82.725L68.1812 82.5045L67.9485 82.306L67.9194 81.887L68.1376 81.8723L68.1085 81.4386L68.0794 81.0195L68.5086 80.9901L68.9377 80.9607L69.1195 80.7328L68.9377 80.3653L68.9595 80.2844L68.945 80.0786L69.1122 79.6449L68.894 79.4243L68.865 79.0053L68.8504 78.7701L69.0322 78.5569L69.2286 78.3217L69.0104 78.3364L68.814 78.3511L68.7995 78.1305L68.9668 77.6968L68.9522 77.4836L69.1486 77.2484L69.3959 77.4469L69.425 77.8806L69.6214 77.8659L69.8178 77.6307L69.8032 77.4175L70.0214 77.4028L70.2033 76.9544L70.1451 76.1016L70.0069 76.4471L69.6941 76.0722L69.6359 76.0502L69.6214 75.8443L69.6068 75.6238L69.3741 75.4327L69.3595 75.2121L69.5559 74.9769L69.7741 74.9622L69.7887 75.1827L69.9851 74.9475L70.3851 74.9181L70.5815 74.6828L70.7997 74.6681L70.9961 74.6534L70.967 74.2344L70.7488 74.0139L70.5306 74.0286L70.1014 73.8669L70.0869 73.6757L70.2905 73.661L70.4869 73.4184L70.7197 73.6316L70.9306 73.8081L71.1343 73.7934L71.0906 73.1685L71.287 72.7201L71.5052 72.7054L71.7089 72.9112L72.1235 72.6613L72.5235 72.2055L72.7271 72.1908L72.7417 72.3819L72.9672 72.3672L72.9381 71.9629L72.9235 71.7424L72.8944 71.3234L73.1272 71.7277L73.3381 71.9335L73.3527 72.154L73.6145 72.5584L73.1854 72.5878L73.1999 72.8083L73.2145 73.0288L73.229 73.2347L73.6727 73.4332L74.0873 73.5949L74.7201 73.1318L75.091 72.8965L75.3019 72.8818L75.5201 72.6466L75.7674 73.2861L75.9638 73.0435L76.1457 72.6098L76.1311 72.3893L76.3202 72.3746L76.5821 72.5731L76.7712 72.3378L76.9676 72.3231L77.6149 72.279L77.6294 72.4995L77.8331 72.4849L77.8186 72.2643L78.0368 72.2496L78.175 71.5954L78.5895 71.3454L78.6186 71.7791L78.8587 71.7644L79.426 71.0661L79.8406 70.8308L80.0006 70.603L80.2115 70.3677L80.4152 70.353L80.8734 70.5368L81.0625 70.3016L80.8443 70.0957L81.2298 69.8605L81.4189 69.4268L81.6371 69.1915L81.8335 69.1768L82.0226 68.9269L82.0081 68.7284L82.2481 68.9122L82.4372 68.8975L82.4517 68.6917V68.6623L82.6409 68.4417L82.8591 68.427L83.0336 68.2432L83.0627 68.6475L83.2882 68.6328L83.6955 68.1991L83.8846 67.9933L84.2846 67.9639L84.3065 68.3241L84.321 68.5593L83.9355 68.7872L83.5064 69.0519L83.3318 69.2797L83.5355 69.4709L83.7973 69.6694L83.3755 69.9046L82.9463 69.7282L82.7281 69.7429L82.5099 69.9634L82.3208 69.9781L82.3354 70.1986L82.539 70.4045L83.1718 70.3604L83.4118 70.5588L83.4264 70.7573L84.0737 70.9264L83.8773 70.9411L83.6446 71.1763L83.4409 70.9705L83.47 71.4042L83.6664 71.5807L83.4991 71.8306L83.2591 71.6101L83.0554 71.4336L82.8518 71.6395L82.8809 72.0879L82.6627 72.3231L82.91 72.5143L82.9391 72.9333L82.5245 72.9627L82.3426 73.6022L82.3572 73.8228L82.7863 74.0139L83.2445 74.1977L83.4337 74.183L83.8482 74.1536L84.1101 74.352L84.1246 74.5579L84.5101 74.5285L84.7138 74.3079L84.9393 74.4991L85.3684 74.4697L85.3829 74.6828L85.8266 74.8519L86.2412 74.8225L86.4521 75.0284L86.6703 75.2342L87.0995 75.2048L87.7759 76.0134L88.4451 76.1678L88.6487 76.1531L88.8669 76.1384L89.0851 76.3589L89.2888 76.3442L89.4997 76.0943L89.7034 76.0796L89.9361 76.3001L90.3798 76.2707L90.4089 76.6897L90.6053 76.675L91.0199 76.6456L91.2235 76.8514L91.2381 77.072L91.5072 77.4469L91.7181 77.6527L92.1763 78.0423L92.38 78.2482L92.3945 78.476L92.2054 78.4907L92.0163 78.9245L92.0309 79.1229L92.0454 79.3435L92.2636 79.3288L92.2491 79.1082L92.4382 79.0935L92.6855 79.0788L93.5074 79.02L93.7183 78.7995L93.922 78.7848L94.1038 78.5569L94.5329 78.748L94.7584 78.7333L94.773 78.9318L94.7875 79.1524L95.0057 79.1376L95.4203 79.1082L96.0676 79.27L96.0822 79.4979L96.2858 79.689L96.1258 80.1227L96.1404 80.3432L96.3586 80.7623L96.5913 80.9828L96.8168 80.9681L97.0204 80.9534L97.2386 80.9387L97.435 80.924L97.6387 80.9093L97.8351 80.6593L98.0751 80.8725L98.0896 81.071L98.5042 81.0416L98.7224 81.0269L99.1661 81.2107L99.1807 81.3871L99.828 81.762L100.272 81.9678L100.483 82.1516L101.115 82.1075L101.559 82.0781L101.748 82.0634L102.163 81.8282L102.577 81.7988L102.592 81.7694V81.7988V81.762L102.737 81.3503L102.723 81.1298L102.708 80.9534L103.137 80.7034L103.523 80.2403L103.508 80.0198L103.69 79.5714L103.865 79.1376L104.308 79.1082L104.461 78.6598L104.694 78.6451L105.123 79.0494L105.385 79.2479L105.414 79.6669L105.174 79.6816L105.436 79.8801L105.669 80.3138L105.683 80.5123L105.254 80.7623L105.05 80.777L105.509 80.924L105.909 81.1151L106.127 80.8799L106.338 80.8652L107.181 81.0195L106.949 80.8211L107.152 80.6299L106.709 80.4462L106.49 80.0271L106.665 79.7992L106.65 79.5787L106.636 79.3582L106.854 79.3435L106.883 79.7772L107.065 79.3288L107.036 78.9098L107.021 78.7039L106.789 78.4907L106.541 78.0864L106.76 78.0717L106.745 77.8733L106.716 77.4542L106.701 77.2263L106.469 77.0279L106.454 76.8073L106.658 76.5868L106.84 76.1237L107.043 75.9546L107.458 75.9252L107.443 75.7047L107.24 75.4988L106.811 75.7488L106.381 75.7782L105.981 75.8076L105.734 75.4033L105.319 75.4327L105.101 75.2268L104.825 74.8078L104.607 74.602L104.396 74.4109L104.148 74.1977L103.959 74.2124L103.523 74.0506V74.0359H103.501L103.297 74.0506L102.883 73.8595L102.425 73.6757L102.177 73.492L101.545 73.1171L101.101 72.9333L100.65 72.529L100.592 71.6909L100.366 71.5145L100.119 71.3013L100.09 70.8823L99.8716 70.4486L99.6534 70.4633L99.6389 70.2721L99.1952 70.0884L98.5479 69.6988L98.5624 69.9193L98.3806 70.1545L98.1333 69.9561L97.7041 69.7649L97.8569 68.8975L97.8423 68.6917L98.0242 68.4564L97.9951 68.0374L98.206 67.7875L97.9587 67.6037L97.9151 67.0082L98.1115 66.5451L98.0824 66.1261L98.2787 66.1114L98.497 66.2952L98.8824 65.8321L99.1006 65.5968L99.2898 65.391L99.4789 64.9426L99.6752 65.1484L99.8789 64.7L99.6025 64.0751L99.2025 64.1045L99.0061 64.1192L98.5624 63.9502L98.7297 63.487L98.9479 63.2665L99.1443 63.2518L98.9261 63.046L98.2497 62.6563L97.3768 62.105L96.9477 61.7007L96.7368 61.9506L96.2931 61.98L96.3076 62.1785L96.1185 62.4138L95.6894 62.2226L95.4712 62.0389L95.4421 61.6198L95.4276 61.3699L94.9693 61.2008L94.5693 61.2302L94.3656 61.4434L94.322 60.8186L94.2929 60.3848L94.6784 59.7012L94.0311 59.5689L93.8129 59.3557L93.9947 59.1057L93.951 58.4809L93.7328 58.2677L93.4928 57.9222L93.6747 57.4591L93.871 57.4444L93.8274 56.7901L93.631 56.8048L93.9874 56.1359L94.4311 56.3417L94.6493 56.7313L95.1075 56.9151L95.3257 57.1283L95.7112 56.6505L95.6967 56.4299L95.4712 56.0256L95.2094 55.4081L94.7657 55.217L95.1803 54.9817L95.5948 54.9523L95.5803 54.7318L95.5658 54.526L95.5076 53.6438L95.9222 53.6144L96.1331 53.3939L96.3367 52.9896L96.7077 52.5265L96.875 52.1074L96.8604 51.8648L96.8459 51.659L97.0786 51.6443L97.2896 51.8354L97.5078 52.0633L97.9078 51.7913L98.1115 51.3723L98.2787 50.9239L98.6642 50.6813L98.897 50.6666L99.377 51.0856L99.3625 50.8577L99.5225 50.424L99.7407 50.4093L100.155 50.3799L100.388 50.571L100.817 50.7622L101.443 50.7181L101.675 50.9313L102.09 50.9018L102.316 50.8871L102.519 51.0783L102.49 50.6446L102.286 50.4387L102.272 50.2329L102.461 50.2182L103.552 50.3432L104.199 50.5122L104.388 50.0785L104.374 49.858L104.359 49.6448L104.548 49.6301L104.534 49.4316L104.33 49.2258L104.73 49.1964L105.159 49.167L104.912 48.748L105.13 48.7333L105.341 48.4907L105.77 48.6891L106.185 48.6597L106.156 48.226L106.541 48.1966L106.338 47.7923L106.498 47.5938L106.701 47.3733L107.145 47.1234L107.363 47.3292L107.574 47.7114L108.003 47.682L108.84 47.4321L109.036 47.4174L109.269 47.4027L109.254 47.1969L109.225 46.7778L109.596 46.5206L110.244 46.2559L110.825 45.587L111 45.3591L110.971 44.9254V44.9401ZM38.1856 51.4458L37.9528 51.4605L37.3346 51.5046L37.1164 51.5193L36.9054 51.7546L36.92 51.9604L37.1746 52.3794L37.16 52.1736L37.1455 51.9457L37.3491 51.7252L37.5382 51.7105L37.771 51.6958L37.9674 51.6811L38.2001 51.6664L38.4038 51.6517L38.6147 51.4164L38.8329 51.4017L39.2475 51.3723L39.4802 51.5708L39.7057 51.7619L39.6912 51.5561L39.873 51.3209L40.0912 51.1003L40.0621 50.6666L39.8294 50.6813L39.8148 50.4608L40.033 50.2255L40.2149 50.005L40.0185 50.0197L39.8003 50.2402L39.6039 50.2549L39.393 50.2696L39.1966 50.5049L38.9784 50.5196L38.7893 50.7548L38.5929 50.9901L38.6074 51.2106L38.3965 51.4311L38.1928 51.4458H38.1856ZM54.5144 48.3142L54.7472 48.2995L54.9654 48.5201L54.9799 48.7186L55.1982 48.498L55.1836 48.2628L55.5982 48.2334L55.8018 48.2187L55.7873 48.0275L55.9691 47.7923L56.2019 47.5424L55.7437 47.3733L55.1545 47.8511L54.8927 47.4321L54.7108 47.6526L54.7254 47.8805L54.7399 48.1011L54.3253 48.3216L54.5217 48.3069L54.5144 48.3142ZM55.2709 46.7631L55.3 47.1822L55.5036 46.969L55.6927 46.7337L55.6782 46.5573L55.2491 46.3662L55.0672 46.5941L54.8345 46.6088L54.849 46.7852L55.0818 46.7705L55.2782 46.7558L55.2709 46.7631ZM25.8353 90.0982L25.6171 90.1129L25.3989 90.1276L25.1661 89.9292L24.9479 89.9439L24.9625 90.1644L25.1952 90.3629L25.4134 90.3482L25.6462 90.5466L25.8644 90.5319L25.8498 90.3188L25.8353 90.0982ZM38.6874 55.7242L38.7165 56.1579L39.1602 56.1285L39.1748 56.327L39.5893 56.2976L39.8075 56.2829L39.793 56.0844L39.7785 55.8639L39.7639 55.6433L39.7494 55.4375L39.5312 55.4522L39.2984 55.239L39.1093 55.4816L38.8765 55.2684L38.8911 55.4963L38.6656 55.511L38.6802 55.7169L38.6874 55.7242ZM40.4112 57.0989L40.3967 56.8857L40.1785 56.9004L39.9603 56.9151L39.9748 57.1283L40.2003 57.3121L40.4331 57.5179L40.6513 57.5032L40.8695 57.4885L40.8549 57.268L40.6294 57.0842L40.4112 57.0989ZM35.7926 85.8346L35.7635 85.4008L35.749 85.195L35.7344 84.9598L35.6326 84.7613L35.5235 84.6657L35.4799 84.7172L35.2907 84.6878L35.0798 84.8054L34.8543 84.8201L34.7598 84.8716L34.6652 85.0259L34.447 85.1288L34.2797 85.3788L34.1415 85.5332L34.1997 85.7169L34.1706 85.9522L34.2288 86.1801L34.3306 86.3638L34.3452 86.5844L34.367 86.6579L34.2288 86.7976L34.3743 87.0181L34.5489 87.1945L34.5634 87.4151L34.7089 87.6135L34.8543 87.6282L35.0725 87.8341L35.058 87.6135L35.2689 87.3783L35.2544 87.1725L35.4289 86.724L35.4144 86.5035L35.3998 86.283L35.6035 86.0698L35.7999 85.8346H35.7926ZM44.8262 100.235V100.471L45.0517 100.713H45.5172V100.485L45.0517 100.235H44.819H44.8262ZM44.3607 100.221H44.5935V99.9929H44.3607V100.221ZM35.6399 89.7233L35.8217 89.2749L35.8072 89.0397L35.589 89.0544L35.5744 88.8485L35.3562 88.6647L35.5599 88.65L35.3417 88.4295L35.1016 88.2457L35.0871 88.0252L34.898 88.2604L34.6725 88.2751L34.687 88.4736L34.4834 88.4883L34.2652 88.503L34.0834 88.753L33.8506 88.7677L33.4215 88.7971L33.2178 89.0176L32.9996 88.8338L33.0142 89.0323L32.8105 89.2528L32.825 89.4881L32.8396 89.6866L33.0869 90.1056L33.1014 90.3261L33.1305 90.7451L33.3342 90.7304L33.7633 90.701L33.5669 90.9363L33.3706 91.1715L33.3851 91.392L33.3996 91.6126L33.2105 91.8257L32.9923 91.8405L33.2251 92.0389L33.0432 92.4874L33.276 92.6858L33.2905 92.9064L33.3051 93.1122L33.7342 93.296L33.9524 93.2813L34.1706 93.2666L34.1561 93.046L34.1415 92.8402L34.3597 92.605L34.7889 92.7961L34.9925 92.7814L35.2326 92.9725L35.4217 92.752L35.4071 92.5315L35.378 92.0977L35.3489 91.664L35.5453 91.2303L35.5308 91.0098L35.5162 90.7892L35.5017 90.5687L35.4871 90.3482L35.4726 90.1423L35.6762 90.1276L35.8726 89.8924L35.8581 89.6939L35.6399 89.7086V89.7233ZM78.415 75.4253L78.8296 75.1901L78.8441 75.3886L79.106 75.587L79.2441 74.9401L79.2296 74.7343L79.6296 74.2712L80.0588 74.2418L80.0733 74.4623L80.4734 74.4329L80.9025 74.4035L81.3025 74.1536L81.288 73.933L81.0698 73.7272L81.0552 73.5287L81.2589 73.514L81.2443 73.2788L81.0407 73.2935L80.597 73.3229L80.1824 73.5875L80.0224 73.8007L79.826 74.0359L78.9969 74.0948L78.9823 73.8742L78.7277 73.6904L78.3131 73.9257L78.1095 73.7345L78.0949 73.4993L77.8767 73.514L77.6731 73.5287L77.6585 73.3376L77.644 73.1465L77.4112 72.9333L77.1567 72.7495L77.0039 73.1979L76.8148 73.4037L76.8003 73.2126L76.5821 72.9994L76.342 73.0141L76.3275 72.8083L76.1384 72.823L76.1675 73.2567L76.182 73.4478L75.9784 73.6537L75.5783 73.9183L75.5929 74.1168L75.1492 74.1462L74.9528 74.3814L74.9674 74.602L74.5819 74.8446L74.5964 75.0651L74.9819 74.8225L75.2001 74.8078L75.411 74.7931L75.6583 74.9916L76.0875 75.168L76.2911 74.9475L76.3057 75.1533L76.5239 75.5576L76.3493 75.7855L76.5675 76.1972L76.4002 76.4398L76.4148 76.6456L77.0476 76.6015L77.2585 76.8073L77.8913 76.5427L78.0513 75.8884L78.2477 75.6532L78.4223 75.4253H78.415ZM82.0808 97.9566L83.0336 97.2656C83.0336 97.2656 82.3281 97.4861 81.848 97.9493C81.368 98.4124 80.1897 98.8608 80.1897 98.8608L79.2514 98.8388L79.2369 99.5445H78.7714C78.7714 99.5445 78.9969 99.7724 78.7641 100.008C78.5241 100.235 78.0659 99.9929 78.0659 99.9929C78.5023 101.419 79.4551 100.735 79.4551 100.735L80.1533 100.985L81.1062 100.059V99.5886L82.2917 99.3754C82.2917 99.3754 81.8262 99.368 81.6007 98.8902C81.3753 98.4124 82.0881 97.9566 82.0881 97.9566H82.0808ZM46.4918 94.9647L46.0918 95.2146L45.6627 95.244L45.4663 95.4793L45.219 95.2808L45.0226 95.2955L44.8044 95.5307L44.6153 95.5454L44.4044 95.5601L44.1862 95.5748L43.7716 95.8248L43.3424 95.8542L42.8988 95.6704L42.4696 95.4793L42.2369 95.2808L41.8077 95.3102L41.3932 95.5601L41.3786 95.3396L41.1677 95.1485L40.9495 95.369L40.7531 95.3837L40.7822 95.8174L40.564 96.0527L40.5785 96.2732L40.8258 96.457L41.2695 96.6628L41.4659 96.6481L41.7132 96.8319L42.3605 97.001L42.5933 97.1994L42.8406 97.6185L43.2697 97.5891L43.4806 97.7728L43.9098 97.7434L44.3535 97.9199L44.368 98.1478L44.6153 98.5668L45.0299 98.7432L45.2481 98.5227L45.6918 98.6991L45.6627 98.2654L46.0773 98.0301L46.0482 97.5964L45.83 97.6111L46.0336 97.3979L45.8154 97.4126L45.8009 97.1774L45.7863 96.9716L45.9827 96.7363L45.9682 96.5158L45.9536 96.3173L45.9391 96.0821L46.1427 95.8689L46.3391 95.8542L46.5209 95.4058L46.5064 95.1852L46.4918 94.9647ZM63.2644 93.9576L63.5262 94.3766L63.7226 94.3619L63.6935 93.9282L63.4753 93.7076L63.228 93.5239L63.2135 93.318L62.9953 93.1049L62.7771 93.1196L62.5443 92.9284L62.1006 92.7446L61.6715 92.774L61.4679 92.5682L61.2206 92.3771L61.0024 92.3918L60.5878 92.627L60.8205 92.8255L61.0387 92.8108L61.4824 92.7814L61.6861 92.9872L62.1297 93.1637L62.3625 93.3768L62.8062 93.5533L63.0389 93.7371L63.2571 93.9576H63.2644ZM67.083 99.2945L66.6102 99.5224L65.4392 99.5004V99.2651L64.9737 99.2578L64.2681 99.4783L63.5699 99.4636V98.9931H63.3444V99.2284L62.8716 99.221L62.6462 98.7432L62.1734 98.9711V99.4416L62.1516 100.147L63.0898 100.169L64.2609 99.9561L65.1919 100.213L65.1773 100.919L66.8284 100.243L68.2322 100.272L68.2467 99.5665L67.5412 99.7871L67.083 99.3019V99.2945Z" fill="white"/>
</svg>
