<svg width="111" height="111" viewBox="0 0 111 111" fill="none" xmlns="http://www.w3.org/2000/svg">
<path d="M4 30.1533C4 28.9338 4 27.7073 4 26.4878C4.48532 24.5281 4.80184 22.5191 6.05383 20.7497C7.89666 21.8705 9.70431 22.9702 11.5331 24.0769C11.3713 24.4364 11.2377 24.7043 11.1251 24.9863C9.19086 29.6951 11.6948 35.2287 16.3089 36.5187C16.9349 36.695 17.2655 36.6104 17.6172 36.0323C20.9582 30.5269 25.4809 26.1917 30.9882 22.935C42.4953 16.1114 54.8183 14.5676 67.7814 17.4648C68.5059 17.6269 68.9771 17.5282 69.582 17.0348C75.427 12.2625 82.0105 10.8597 89.2763 12.9251C92.7439 13.912 95.4378 16.1607 98.0966 18.5363C97.1189 19.4738 96.1905 20.3197 95.3112 21.215C92.6947 23.8796 91.4286 27.1222 91.3794 30.8441C91.3794 31.2741 91.5904 31.7464 91.8225 32.1271C93.2504 34.4251 94.7415 36.6809 96.1482 38.993C96.4507 39.4864 96.7039 39.7191 97.2947 39.712C100.474 39.6838 103.66 39.6979 106.839 39.6979C107.205 39.6979 107.564 39.6979 107.993 39.6979C106.41 48.5587 104.842 57.2927 103.287 66.0337C103.189 66.5835 102.915 66.7315 102.387 66.7245C100.692 66.6963 99.0039 66.7315 97.3088 66.7033C96.7391 66.6963 96.4085 66.8514 96.1412 67.4082C93.4473 72.9841 89.4733 77.4956 84.5638 81.2176C84.0784 81.5912 83.6494 82.2186 83.4806 82.8037C82.1583 87.5337 80.8922 92.2778 79.6543 97.0289C79.4644 97.7479 79.1971 98.0017 78.4374 97.9946C75.2863 97.9523 72.1423 97.9594 68.9912 97.9946C68.3089 98.0017 67.894 97.8114 67.5141 97.2192C66.0933 94.9917 64.6022 92.8064 63.1673 90.586C62.8367 90.0714 62.4991 89.9374 61.8661 89.9515C58.0187 90.0079 54.1642 90.0079 50.3097 89.9515C49.6908 89.9445 49.3391 90.0361 48.9945 90.5648C47.5525 92.8205 46.0403 95.0269 44.5914 97.2827C44.2608 97.7973 43.9021 97.9946 43.2831 97.9946C40.1672 97.9594 37.0513 97.9383 33.9424 98.0087C33.021 98.0299 32.6693 97.7479 32.4372 96.8738C31.2133 92.1509 29.9472 87.442 28.6319 82.7473C28.4772 82.1904 28.0693 81.5912 27.605 81.2387C24.6861 78.9971 22.0203 76.5087 19.7906 73.5763C14.445 66.5341 11.9551 58.632 12.9187 49.7712C13.1719 47.4309 13.7627 45.1258 14.2059 42.7361C14.0722 42.6797 13.8331 42.574 13.5869 42.4823C9.12052 40.8399 6.20858 37.703 4.75964 33.1915C4.45719 32.1905 4.25321 31.1614 4 30.1533ZM52.8208 33.4382C52.8208 34.6648 52.87 35.8491 52.7926 37.0192C52.7715 37.3505 52.455 37.7594 52.1596 37.9497C51.3367 38.4784 50.3941 38.8168 49.6064 39.3878C44.5914 43.0181 44.2608 50.5537 49.0648 53.9584C50.4293 54.9241 52.1526 55.4246 53.7703 55.9745C55.2685 56.482 56.8581 56.7005 58.3703 57.1728C59.7841 57.6169 60.1991 58.4699 59.9178 59.9291C59.7138 60.9935 59.0174 61.6491 58.1031 62.1073C56.2532 63.0378 52.9474 62.7769 52.0119 59.5555H45.7238C45.7238 59.8868 45.6957 60.1546 45.7238 60.4155C46.2443 64.222 48.3896 66.7809 51.8642 68.2401C52.6238 68.5573 52.877 68.9379 52.8278 69.7274C52.7575 70.7637 52.8137 71.814 52.8137 72.9137H59.3129C59.3129 71.814 59.3551 70.7989 59.2988 69.7909C59.2496 68.9802 59.4746 68.5643 60.2976 68.233C65.0242 66.3297 67.3875 61.6914 66.1426 56.8697C65.193 53.183 62.478 51.4278 59.0385 50.5255C57.4067 50.0955 55.7538 49.743 54.122 49.32C53.1725 49.0733 52.3425 48.6504 52.2018 47.5014C52.0471 46.2678 52.4972 45.3302 53.4819 44.5971C55.4092 43.1591 59.2425 43.4763 60.1147 46.8105H66.3536C66.4028 46.7048 66.445 46.6484 66.445 46.592C66.452 46.4581 66.452 46.3241 66.445 46.1902C66.03 42.2215 63.8074 39.6133 60.2272 38.1048C59.5028 37.8017 59.2636 37.4492 59.3058 36.695C59.3691 35.6235 59.3199 34.552 59.3199 33.4453H52.8208V33.4382Z" fill="white"/>
</svg>
