<svg width="111" height="111" viewBox="0 0 111 111" fill="none" xmlns="http://www.w3.org/2000/svg">
<path d="M81.9536 33.3091C88.0125 29.8074 94.4664 29.1779 101.226 31.0009C102.08 27.9714 102.895 25.0337 103.73 22.1025C104.131 20.6927 104.571 19.2894 104.998 17.8861V17.4534C104.756 17.4271 104.507 17.4271 104.278 17.3681C94.46 14.7779 85.0499 15.8665 76.0476 20.6599C61.5216 28.3976 53.0672 45.7615 55.8067 62.2599C57.4313 72.0632 61.8465 80.2796 69.2752 86.6337C77.8697 93.9911 87.7958 97.0009 98.9133 95.6828C100.952 95.4402 102.965 94.9484 104.991 94.5681V94.1353C104.004 90.7255 103.023 87.3091 102.035 83.8992C101.768 82.9747 101.5 82.0435 101.213 81.0468C92.4849 83.2632 84.6039 81.6435 77.7359 75.6828C73.8942 72.3517 71.3203 68.1419 69.8932 63.0271H88.2864V49.0337H69.8613C71.9319 42.0238 75.9074 36.7911 81.9472 33.3025L81.9536 33.3091ZM19.6828 58.2665C19.0775 50.7714 21.1672 44.0763 26.1621 38.5615C33.1894 30.7976 41.8923 28.5222 51.8758 30.9288C53.1309 26.4566 54.3605 22.0632 55.6092 17.6107C40.8984 13.0468 22.9511 18.1288 12.6873 33.532C2.91413 48.2074 3.97173 68.3451 15.0829 81.7353C26.812 95.873 44.1795 98.2074 55.5837 94.3124C54.3477 89.8992 53.1054 85.4861 51.8694 81.073C36.7063 85.7091 20.9888 74.4894 19.6828 58.2665Z" fill="white"/>
</svg>
