<svg width="111" height="111" viewBox="0 0 111 111" fill="none" xmlns="http://www.w3.org/2000/svg">
<path d="M66.7401 7.42159C42.3445 1.45323 17.459 14.7555 8.89086 38.3639C7.38922 42.5088 6.45772 46.7983 6.16863 51.2163C6.14454 51.5216 6.05621 51.8268 6 52.1321V57.8755C6.24893 59.7311 6.43363 61.5947 6.75483 63.4342C8.73828 74.7845 14.1185 84.2472 22.7348 91.8542C30.0423 98.3126 38.5864 102.168 48.2466 103.534C49.5315 103.719 50.8324 103.847 52.1252 104H57.8668C59.7217 103.751 61.5928 103.566 63.4397 103.245C73.7183 101.469 82.5113 96.8185 89.8268 89.4283C96.805 82.3755 101.23 73.9411 103.117 64.1893C108.055 38.7575 91.9146 13.5667 66.7481 7.41355L66.7401 7.42159ZM101.061 53.4736H95.1508V39.7375C95.1508 38.404 94.0747 37.3277 92.7417 37.3277H79.2109C78.7452 35.1427 78.1991 32.9819 77.6852 30.8372C82.1098 29.3591 86.5665 27.8731 91.1116 26.3549C97.3109 34.219 100.635 43.2559 101.061 53.4736ZM56.4776 72.6719H76.312C75.8142 74.6721 75.3324 76.6 74.8827 78.3993C68.6994 77.6924 62.6367 77.0096 56.4776 76.3108V72.6719ZM17.2502 70.2621V39.7375H92.7417V70.2621H17.2502ZM56.4856 37.3277V33.6968C62.6286 32.998 68.6834 32.3152 74.8907 31.6163C75.3324 33.3996 75.8142 35.3275 76.312 37.3277H56.4776H56.4856ZM56.4856 9.06831C58.0274 9.14864 59.3764 9.6788 60.6693 10.3536C64.4354 12.3216 67.0533 15.4624 69.3017 18.9567C69.6952 19.5752 70.0405 20.2178 70.4259 20.8444C71.0603 21.8806 71.8312 22.1618 72.6182 21.6557C73.3569 21.1898 73.4533 20.3704 72.8912 19.3824C71.0282 16.1291 68.8922 13.0927 66.0415 10.6026C65.9531 10.5222 65.8809 10.4178 65.8006 10.3295C74.9469 12.418 82.6077 16.9967 89.1683 24.0414C84.9284 25.415 80.8732 26.7324 76.7617 28.0739C76.4405 27.2144 76.2237 26.5878 75.9667 25.9773C75.5813 25.0696 74.8505 24.7081 74.0636 24.9973C73.3168 25.2704 73.0036 26.0657 73.3007 26.9895C73.4533 27.4714 73.638 27.9454 73.8548 28.5559C68.1213 29.809 62.3636 30.4195 56.4856 30.5159V9.06831ZM53.5064 37.3277H33.6639C34.1537 35.3516 34.6355 33.4157 35.0852 31.6003C41.2443 32.3072 47.2991 32.998 53.4984 33.7049V37.3277H53.5064ZM47.0421 11.7673C48.9212 10.3455 50.993 9.34142 53.4984 9.02011V30.4034C51.017 30.8131 38.9397 29.4796 36.097 28.4595C36.9081 26.5958 37.6388 24.7001 38.5221 22.8847C40.61 18.6113 43.1876 14.6832 47.0421 11.7673ZM44.1513 10.2652C41.5174 12.6268 39.3412 15.366 37.6629 18.4345C36.0007 21.4629 34.6195 24.6439 32.9974 27.9936C29.1188 26.7324 25.0796 25.4231 20.8237 24.0414C27.3923 16.9886 35.037 12.4099 44.1513 10.2652ZM9.30039 48.8547C10.2319 41.9304 12.6088 35.5283 16.4553 29.6885C17.1378 28.6522 17.8766 27.6481 18.6395 26.6681C18.784 26.4834 19.1935 26.3308 19.4023 26.395C23.6744 27.865 27.9304 29.3672 32.2747 30.8934C31.8732 32.5562 31.4154 34.3957 30.9898 36.2432C30.8854 36.7011 30.7971 37.0545 30.7088 37.3277H17.2583C15.9253 37.3277 14.8492 38.404 14.8492 39.7375V53.5218H8.8748C9.01934 51.9313 9.09161 50.3809 9.30039 48.8547ZM18.4146 83.0985C14.0462 77.3791 11.1313 71.0011 9.76614 63.9403C9.30039 61.5385 9.10767 59.0885 8.7704 56.5019H14.8492V70.2621C14.8492 71.5955 15.9253 72.6719 17.2583 72.6719H30.765C31.2307 74.8568 31.7768 77.0177 32.3148 79.2829C32.0097 79.3873 31.6644 79.5078 31.311 79.6203C27.4807 80.8975 23.6422 82.1586 19.8279 83.4841C19.1855 83.709 18.8563 83.6688 18.4226 83.0985H18.4146ZM53.4662 100.955C51.2098 100.722 49.2825 99.7986 47.4998 98.5536C44.625 96.5534 42.473 93.8865 40.626 90.9465C40.2004 90.2718 39.831 89.5649 39.3894 88.8981C38.8594 88.1109 38.1206 87.9182 37.422 88.3198C36.7073 88.7295 36.5066 89.5649 36.9723 90.4003C37.5505 91.4285 38.0885 92.4968 38.8192 93.4126C40.4333 95.4208 42.1518 97.3326 43.8301 99.2845C43.9505 99.4211 44.071 99.5577 44.352 99.8709C35.037 97.5816 27.3682 92.9949 20.8156 85.9501C25.0475 84.5765 29.0867 83.2591 33.2142 81.9177C33.5193 82.729 33.7362 83.3475 33.9851 83.958C34.3545 84.8577 35.1013 85.2432 35.8722 84.9541C36.6431 84.6568 36.9562 83.9018 36.6672 82.978C36.5146 82.496 36.3299 82.0221 36.1291 81.4437C41.8466 80.1906 47.5801 79.5882 53.4662 79.4757V100.955ZM35.0772 78.3993C34.6275 76.5919 34.1537 74.6721 33.6558 72.6719H53.4743V76.3108C47.3633 77.0016 41.3086 77.6924 35.0772 78.3993ZM62.9659 98.2082C61.0869 99.6701 58.983 100.682 56.4615 100.979V79.4918C62.3235 79.5721 68.0731 80.1986 73.8628 81.4437C71.4056 87.8941 68.4907 93.9026 62.9659 98.2082ZM65.7042 99.7585C71.1406 94.9227 74.2402 88.7375 76.7537 81.9418C80.8651 83.2752 84.9043 84.5845 88.9916 85.91C85.9643 90.9706 72.4656 98.9713 65.7042 99.7585ZM100.459 62.5185C99.2221 70.1898 96.1867 77.09 91.4248 83.219C91.2481 83.4439 90.7743 83.6608 90.5415 83.5885C86.3096 82.2149 82.0857 80.8011 77.8618 79.3954C77.8056 79.3793 77.7575 79.3231 77.6852 79.2668C78.1991 77.0739 78.697 74.8729 79.2511 72.68H92.7498C94.0828 72.68 95.1588 71.6036 95.1588 70.2701V56.51H101.157C100.924 58.5663 100.788 60.5585 100.467 62.5265L100.459 62.5185Z" fill="white"/>
<path d="M30.4759 54.3732L25.2081 48.0594H21.3617V61.9401H25.9228V55.6263L31.1906 61.9401H35.037V48.0594H30.4759V54.3732Z" fill="white"/>
<path d="M87.1206 54.566C86.6629 54.2607 86.165 54.0197 85.627 53.835C85.089 53.6502 84.5429 53.5056 83.9889 53.4012C83.4428 53.2968 82.9369 53.2004 82.4792 53.104C82.0215 53.0156 81.6601 52.8951 81.3791 52.7586C81.098 52.622 80.9615 52.4292 80.9615 52.1963C80.9615 52.0356 81.0177 51.891 81.1301 51.7625C81.2425 51.634 81.4272 51.5215 81.6922 51.4492C81.9572 51.3769 82.3106 51.3288 82.7602 51.3288C83.3705 51.3288 83.9889 51.4171 84.6313 51.5858C85.2737 51.7545 85.9322 52.0115 86.6227 52.3569L88.028 48.9671C87.3053 48.5574 86.4862 48.2522 85.5708 48.0514C84.6554 47.8506 83.7319 47.7542 82.7924 47.7542C81.363 47.7542 80.1745 47.963 79.2189 48.3887C78.2634 48.8145 77.5406 49.3768 77.0588 50.0837C76.577 50.7906 76.3361 51.5697 76.3361 52.4292C76.3361 53.1683 76.4726 53.7868 76.7537 54.2848C77.0347 54.7828 77.3961 55.1765 77.8538 55.4817C78.3115 55.7869 78.8094 56.0279 79.3635 56.2127C79.9095 56.3974 80.4556 56.5501 81.0016 56.6625C81.5397 56.775 82.0456 56.8794 82.4953 56.9758C82.953 57.0722 83.3143 57.2007 83.5954 57.3453C83.8764 57.4899 84.013 57.6907 84.013 57.9397C84.013 58.1004 83.9567 58.2369 83.8363 58.3494C83.7158 58.4619 83.5311 58.5502 83.2742 58.6065C83.0172 58.6627 82.6639 58.6948 82.2142 58.6948C81.4513 58.6948 80.6563 58.5824 79.8453 58.3494C79.0343 58.1165 78.2955 57.8112 77.637 57.4256L76.1273 60.8315C76.826 61.2573 77.7173 61.5947 78.8014 61.8597C79.8855 62.1248 81.0097 62.2533 82.166 62.2533C83.6034 62.2533 84.7999 62.0365 85.7555 61.6107C86.703 61.185 87.4258 60.6147 87.9076 59.9078C88.3894 59.2009 88.6303 58.4217 88.6303 57.5783C88.6303 56.8553 88.4938 56.2448 88.2127 55.7548C87.9317 55.2648 87.5703 54.8712 87.1126 54.566H87.1206Z" fill="white"/>
<path d="M67.9928 56.052L65.5757 48.0594H61.2715L58.7099 55.9476L56.3009 48.0594H51.4828L55.9235 61.9401H60.9343L63.2951 54.5178L65.5356 61.9401H70.5464L74.9871 48.0594H70.5464L67.9928 56.052Z" fill="white"/>
<path d="M42.8825 56.5822H48.7525V53.2164H42.8825V51.5938H49.5636V48.0594H38.2892V61.9401H49.8205V58.4056H42.8825V56.5822Z" fill="white"/>
</svg>
