<svg width="111" height="111" viewBox="0 0 111 111" fill="none" xmlns="http://www.w3.org/2000/svg">
<path d="M57.6199 49.0017L55.6108 45.7203H54.3783V52.6584H55.4605V47.613L57.5949 50.9212H57.635L59.7894 47.5916V52.6531H60.8716V45.7149H59.6341L57.6249 48.9963L57.6199 49.0017ZM15.5184 36.7983C15.6687 36.6804 30.4541 24.7719 35.5496 20.4986C35.1838 19.9088 34.7128 19.4048 34.1667 19.0134C33.6206 18.622 33.0093 18.3539 32.368 18.2252C32.1125 18.1769 31.852 18.1501 31.5914 18.1501C30.6495 18.1501 29.7276 18.4879 28.9811 19.1206L11.0542 34.1335C10.6484 34.4767 10.3177 34.9164 10.0922 35.4204C9.86676 35.9244 9.75152 36.482 9.75653 37.0396C9.75653 37.6026 9.88179 38.1549 10.1123 38.6589C10.3427 39.1629 10.6784 39.5972 11.0843 39.935L29.3819 54.8728C29.8228 55.2267 30.3288 55.4734 30.8599 55.5967C31.391 55.7254 31.9472 55.7254 32.4782 55.602C33.801 55.3071 34.9634 54.46 35.7249 53.2375L15.2729 37.0021L15.5184 36.7983ZM2.47656 23.4851V55.5967H2.72708C5.23223 55.5967 7.34156 53.1088 7.34156 50.1652V18H7.09105C4.54081 18 2.47656 20.461 2.47656 23.4851ZM96.3796 45.7203L93.5338 52.6584H94.606L95.2974 50.9212H98.489L99.1754 52.6584H100.283L97.4368 45.7203H96.3846H96.3796ZM95.7383 49.7684L96.8907 46.9106L98.048 49.7684H95.7383ZM66.2677 52.6584H71.1327V51.5003H67.3499V49.7631H70.5916V48.6049H67.3499V46.8677H71.1327V45.7096H66.2677V52.6477V52.6584ZM87.346 52.6584H88.4283V45.7203H87.346V52.6584ZM78.4478 45.7203H75.9977V52.6584H78.4478C80.512 52.6584 81.9399 51.141 81.9399 49.1894V49.1679C81.9399 47.2162 80.512 45.7149 78.4478 45.7149V45.7203ZM80.8627 49.2108C80.8627 50.5405 79.9108 51.5056 78.4478 51.5056H77.0799V46.8784H78.4478C79.9058 46.8784 80.8627 47.8596 80.8627 49.1894V49.2108ZM109.487 18H109.211C106.38 18 104.085 20.4718 104.085 23.5119V42.0958C103.66 42.0046 103.219 41.9564 102.773 41.9564H86.3991L96.2343 18.8043L95.9938 18.6595C95.4978 18.3432 94.9517 18.1448 94.3805 18.0751C93.8143 18.0054 93.2382 18.0751 92.692 18.2627C92.1058 18.4718 91.5697 18.8096 91.1088 19.26C90.6478 19.7104 90.2821 20.2627 90.0266 20.8793L81.0832 41.9617H74.4345C71.7039 35.4472 67.9011 26.4287 65.411 20.772C65.1654 20.1715 64.8097 19.6407 64.3638 19.201C63.9179 18.7667 63.3968 18.4397 62.8306 18.2413C62.2845 18.0536 61.7083 17.9946 61.1422 18.0643C60.576 18.134 60.0249 18.3378 59.5339 18.6541L59.2884 18.8043L69.0484 41.9564H51.8881C51.4372 41.9564 50.9963 42.0046 50.5755 42.0958V18H50.2999C47.4741 18 45.1743 20.461 45.1743 23.4851V49.0285V56.417H102.768C106.48 56.417 109.487 53.2536 109.487 49.3449V49.0232C109.487 49.0232 109.487 48.991 109.487 48.9749C109.487 48.9588 109.487 48.9427 109.487 48.932V18ZM108.429 49.3502C108.429 52.6263 105.889 55.2857 102.768 55.2857H46.2315V49.0285C46.2315 45.7525 48.7717 43.093 51.8932 43.093H102.768C105.889 43.093 108.429 45.7578 108.429 49.0285V49.3502Z" fill="white"/>
<path d="M2.5355 92.7275V79.7775H8.8625C10.4905 79.7775 11.7115 80.0859 12.5255 80.7025C13.3518 81.3192 13.765 82.1332 13.765 83.1445C13.765 83.8229 13.5985 84.4149 13.2655 84.9205C12.9325 85.4139 12.4762 85.7962 11.8965 86.0675C11.3168 86.3389 10.6508 86.4745 9.8985 86.4745L10.25 85.716C11.064 85.716 11.7855 85.8517 12.4145 86.123C13.0435 86.382 13.5307 86.7705 13.876 87.2885C14.2337 87.8065 14.4125 88.4417 14.4125 89.194C14.4125 90.304 13.9747 91.1735 13.099 91.8025C12.2233 92.4192 10.9345 92.7275 9.2325 92.7275H2.5355ZM5.514 90.4705H9.0105C9.7875 90.4705 10.3733 90.3472 10.768 90.1005C11.175 89.8415 11.3785 89.4345 11.3785 88.8795C11.3785 88.3369 11.175 87.936 10.768 87.677C10.3733 87.4057 9.7875 87.27 9.0105 87.27H5.292V85.087H8.4925C9.22017 85.087 9.77517 84.9637 10.1575 84.717C10.5522 84.458 10.7495 84.0695 10.7495 83.5515C10.7495 83.0459 10.5522 82.6697 10.1575 82.423C9.77517 82.164 9.22017 82.0345 8.4925 82.0345H5.514V90.4705ZM19.5305 84.9945H25.765V87.3255H19.5305V84.9945ZM19.7525 90.3225H26.801V92.7275H16.774V79.7775H26.5605V82.1825H19.7525V90.3225ZM29.2781 92.7275V79.7775H31.7571L39.3976 89.1015H38.1951V79.7775H41.1551V92.7275H38.6946L31.0356 83.4035H32.2381V92.7275H29.2781ZM47.068 84.9945H53.3025V87.3255H47.068V84.9945ZM47.29 90.3225H54.3385V92.7275H44.3115V79.7775H54.098V82.1825H47.29V90.3225ZM59.5907 85.605H65.8067V88.01H59.5907V85.605ZM59.8127 92.7275H56.8157V79.7775H66.6022V82.1825H59.8127V92.7275ZM68.7236 92.7275V79.7775H71.7206V92.7275H68.7236ZM77.5689 92.7275V82.2195H73.4249V79.7775H84.7099V82.2195H80.5659V92.7275H77.5689ZM90.5796 92.9495C89.5436 92.9495 88.5508 92.8139 87.6011 92.5425C86.6514 92.2589 85.8868 91.895 85.3071 91.451L86.3246 89.194C86.8796 89.5887 87.5333 89.9155 88.2856 90.1745C89.0503 90.4212 89.8211 90.5445 90.5981 90.5445C91.1901 90.5445 91.6649 90.489 92.0226 90.378C92.3926 90.2547 92.6639 90.0882 92.8366 89.8785C93.0093 89.6689 93.0956 89.4284 93.0956 89.157C93.0956 88.8117 92.9599 88.5404 92.6886 88.343C92.4173 88.1334 92.0596 87.9669 91.6156 87.8435C91.1716 87.7079 90.6783 87.5845 90.1356 87.4735C89.6053 87.3502 89.0688 87.2022 88.5261 87.0295C87.9958 86.8569 87.5086 86.6349 87.0646 86.3635C86.6206 86.0922 86.2568 85.7345 85.9731 85.2905C85.7018 84.8465 85.5661 84.2792 85.5661 83.5885C85.5661 82.8485 85.7634 82.1764 86.1581 81.572C86.5651 80.9554 87.1694 80.4682 87.9711 80.1105C88.7851 79.7405 89.8026 79.5555 91.0236 79.5555C91.8376 79.5555 92.6393 79.6542 93.4286 79.8515C94.2179 80.0365 94.9148 80.3202 95.5191 80.7025L94.5941 82.978C93.9898 82.6327 93.3854 82.3799 92.7811 82.2195C92.1768 82.0469 91.5848 81.9605 91.0051 81.9605C90.4254 81.9605 89.9506 82.0284 89.5806 82.164C89.2106 82.2997 88.9454 82.4785 88.7851 82.7005C88.6248 82.9102 88.5446 83.1569 88.5446 83.4405C88.5446 83.7735 88.6803 84.0449 88.9516 84.2545C89.2229 84.4519 89.5806 84.6122 90.0246 84.7355C90.4686 84.8589 90.9558 84.9822 91.4861 85.1055C92.0288 85.2289 92.5653 85.3707 93.0956 85.531C93.6383 85.6914 94.1316 85.9072 94.5756 86.1785C95.0196 86.4499 95.3773 86.8075 95.6486 87.2515C95.9323 87.6955 96.0741 88.2567 96.0741 88.935C96.0741 89.6627 95.8706 90.3287 95.4636 90.933C95.0566 91.5374 94.4461 92.0245 93.6321 92.3945C92.8304 92.7645 91.8129 92.9495 90.5796 92.9495ZM101.261 90.526V81.979H103.648V90.526H101.261ZM98.0608 87.381V85.124H106.867V87.381H98.0608Z" fill="white"/>
</svg>
