<svg width="128" height="42" viewBox="0 0 128 42" fill="none" xmlns="http://www.w3.org/2000/svg">
<path d="M31.5194 14.859H16.5141V19.2269C20.041 19.2396 23.5552 19.2523 27.0885 19.265C27.0821 19.4113 27.0821 19.5257 27.063 19.6338C27.0121 19.9771 26.9611 20.3268 26.8911 20.6701C26.4455 22.7492 25.3823 24.4468 23.708 25.7501C22.1801 26.9391 20.4421 27.6321 18.5513 27.9691C17.3417 28.1852 16.1194 28.1916 14.9035 28.0136C12.9999 27.7402 11.2556 27.0408 9.68949 25.9218C5.99706 23.2833 4.08718 18.7691 4.93389 14.2041C5.58962 10.6691 7.50586 7.95425 10.5999 6.11044C13.0636 4.64176 15.7438 4.18399 18.5768 4.64812C20.5312 4.96601 22.2819 5.74804 23.848 6.94969C24.0836 7.12771 24.3064 7.32481 24.5547 7.52826C25.6051 6.44741 26.6619 5.36656 27.7315 4.273C27.6551 4.20306 27.5914 4.13948 27.5277 4.08862C23.778 0.909644 19.449 -0.40645 14.5724 0.108543C12.6498 0.311997 10.829 0.877854 9.09742 1.73618C4.08081 4.22213 0.687599 9.0796 0.0955372 14.6174C-0.082718 16.3022 -0.0190555 17.9871 0.350187 19.6401C1.42608 24.434 4.13174 28.0454 8.37804 30.4995C10.4534 31.6948 12.7135 32.3624 15.1008 32.5659C16.7051 32.7057 18.2967 32.604 19.8819 32.2988C21.5307 31.9746 23.065 31.3515 24.5229 30.5313C27.2222 29.0118 29.2212 26.8501 30.4435 23.989C31.0801 22.4949 31.4494 20.9245 31.6085 19.3095C31.7358 18.0252 31.7295 16.7409 31.5958 15.4566C31.5767 15.2595 31.5448 15.0688 31.513 14.8653L31.5194 14.859ZM94.6472 13.8989C94.5581 13.8226 94.4944 13.7781 94.4307 13.7273C93.8068 13.2186 93.1447 12.7672 92.4317 12.4048C91.1776 11.769 89.8534 11.4448 88.4337 11.5147C87.2623 11.5719 86.161 11.8898 85.1233 12.4175C82.5959 13.7018 80.7815 15.6601 79.6674 18.2605C78.7061 20.4985 78.6042 22.7746 79.3809 25.0826C79.9539 26.7865 80.8961 28.2679 82.1248 29.5713C82.4049 29.8701 82.7041 30.1562 83.0351 30.4042C83.6272 30.8492 84.2702 31.218 84.9386 31.5359C86.0082 32.0509 87.1223 32.3942 88.3128 32.4832C89.7897 32.5913 91.1967 32.3052 92.5209 31.6376C93.2402 31.2752 93.9023 30.8301 94.5199 30.3151C94.5772 30.2643 94.6472 30.2198 94.7427 30.1562C94.7554 30.3787 94.7618 30.5504 94.7745 30.7284C94.8382 31.6757 94.7809 32.6167 94.5772 33.545C94.3734 34.4605 94.0169 35.2998 93.4058 36.0182C92.5272 37.0482 91.3749 37.5759 90.0571 37.7603C89.7452 37.8048 89.4332 37.7984 89.1213 37.8302C88.7393 37.8684 88.3573 37.8557 87.9817 37.7921C87.0968 37.6395 86.3456 37.2262 85.6835 36.6413C84.9386 35.9864 84.3784 35.198 83.9264 34.3206C83.8946 34.2634 83.8627 34.2062 83.8182 34.1299C82.5004 34.7021 81.1953 35.268 79.8711 35.8402C80.2212 36.5904 80.6096 37.2707 81.068 37.9065C82.0356 39.2417 83.2388 40.2907 84.7477 40.9838C86.0145 41.5623 87.3514 41.8294 88.7393 41.8612C89.898 41.893 91.0375 41.7594 92.1643 41.4924C92.5909 41.3907 93.0365 41.3017 93.4376 41.13C94.8764 40.5006 96.0796 39.5532 97.0154 38.288C98.2378 36.6413 98.8425 34.7721 99.0144 32.7502C99.0463 32.3878 99.0463 32.0191 99.0463 31.6567C99.0463 25.2987 99.0463 18.9471 99.0463 12.5892V12.2649H94.7363C94.7108 12.799 94.6854 13.3267 94.6535 13.8989H94.6472ZM95.1246 22.1007C95.0801 23.9826 94.4753 25.6357 93.0938 26.9581C92.0243 27.9818 90.7383 28.5158 89.2422 28.4777C87.7589 28.4395 86.5111 27.8355 85.4861 26.7738C84.4612 25.712 83.8882 24.434 83.7036 22.9717C83.5126 21.4013 83.7863 19.9199 84.6012 18.5529C85.3906 17.2241 86.5111 16.2768 88.0263 15.8762C89.8216 15.3994 91.445 15.8127 92.8583 17.0016C94.0106 17.968 94.6854 19.2269 94.9846 20.6892C95.0801 21.1533 95.131 21.6238 95.1246 22.1007ZM43.698 11.5083C37.8474 11.5083 33.1173 16.2323 33.1109 22.0752C33.1109 27.7783 37.7201 32.6104 43.6917 32.6358C49.6059 32.6104 54.266 27.8483 54.266 22.0689C54.266 16.2386 49.5359 11.5083 43.6917 11.5083H43.698ZM47.2886 27.2125C46.1554 28.1344 44.8376 28.5667 43.3797 28.4777C41.6927 28.3696 40.3176 27.6257 39.2353 26.3287C38.3822 25.3051 37.892 24.1225 37.7774 22.7937C37.5864 20.6193 38.2421 18.7437 39.8592 17.2496C40.9987 16.1941 42.3739 15.6728 43.9336 15.7427C45.7671 15.8254 47.2313 16.6519 48.3454 18.0888C49.2558 19.2714 49.6696 20.6256 49.695 22.2278C49.6441 24.1606 48.8993 25.8964 47.295 27.2061L47.2886 27.2125ZM66.5911 11.5083C60.7087 11.5083 56.0104 16.2768 56.004 22.0562C55.9913 27.7529 60.5813 32.6104 66.5656 32.6358C72.4162 32.6549 77.1654 27.9118 77.1654 22.0752C77.1654 16.245 72.4353 11.5211 66.5911 11.5147V11.5083ZM70.2008 27.1934C69.0612 28.128 67.7434 28.5667 66.2728 28.4713C64.4711 28.3505 63.026 27.524 61.9501 26.0935C60.8869 24.682 60.4859 23.0798 60.6832 21.3377C60.8806 19.6147 61.6318 18.1715 62.9751 17.0588C64.1019 16.1306 65.407 15.6728 66.8712 15.7491C68.8129 15.8572 70.3217 16.7727 71.4231 18.3558C72.2125 19.4812 72.569 20.7464 72.5817 22.2787C72.5308 24.1606 71.7987 25.89 70.2008 27.1997V27.1934ZM124.257 25.6166C123.716 26.5385 122.958 27.2188 122.016 27.7147C121.175 28.1534 120.278 28.3696 119.342 28.4395C118.642 28.4904 117.954 28.4395 117.286 28.217C115.815 27.7338 114.809 26.7356 114.141 25.3687C114.128 25.3369 114.122 25.2987 114.109 25.2542C118.743 23.3087 123.365 21.3632 128 19.4176C127.987 19.3604 127.987 19.335 127.981 19.3159C127.478 17.9108 126.841 16.5756 125.95 15.3676C125.059 14.166 123.983 13.1868 122.627 12.5256C120.806 11.6355 118.89 11.4765 116.916 11.8262C115.885 12.0106 114.93 12.4175 114.026 12.9389C110.416 15.0243 108.29 19.1506 108.927 23.5503C109.194 25.3877 109.913 27.0408 111.066 28.5095C113.6 31.7457 117.839 33.1826 121.818 32.1208C124.263 31.4659 126.205 30.0735 127.669 28.0136C127.707 27.9563 127.739 27.8991 127.784 27.8292C126.625 27.0599 125.479 26.2969 124.327 25.5276C124.295 25.5721 124.276 25.5912 124.263 25.6166H124.257ZM113.281 21.7446C113.307 21.4013 113.313 21.0643 113.351 20.721C113.447 19.8818 113.676 19.0807 114.077 18.3304C114.618 17.3322 115.408 16.6138 116.464 16.1941C117.362 15.8381 118.279 15.6092 119.253 15.6728C120.723 15.7682 121.857 16.4548 122.659 17.6883C122.684 17.7264 122.703 17.7646 122.741 17.8409C119.603 19.1569 116.471 20.4667 113.345 21.7764C113.326 21.7637 113.307 21.751 113.288 21.7383L113.281 21.7446ZM102.21 31.8601H106.788V1.07495H102.21V31.8601Z" fill="white"/>
</svg>
