<svg width="128" height="35" viewBox="0 0 128 35" fill="none" xmlns="http://www.w3.org/2000/svg">
<path d="M12.1042 19.1865C11.6038 17.9406 11.1507 16.688 10.6977 15.4354C8.86513 10.398 7.03936 5.3539 5.21359 0.31652C5.13244 0.0875481 5.03777 -0.00673447 4.78757 0.00673447C4.22632 0.0269379 3.66506 0.0134689 3.09705 0.0134689C2.07597 0.0134689 1.04813 0.0134689 0 0.0134689V34.2111C1.79872 33.9686 3.56363 33.7262 5.36912 33.4838V15.0785C5.46379 15.1862 5.51112 15.3007 5.55169 15.4152C7.53299 21.0721 9.51429 26.7224 11.4821 32.3793C11.5903 32.6824 11.7187 32.7295 12.0095 32.6891C12.848 32.5746 13.6933 32.4938 14.5385 32.3995C15.519 32.2918 16.5063 32.184 17.4868 32.083V0.0404068H12.1042V19.1865ZM121.103 16.4994C121.021 16.2839 121.028 16.1021 121.116 15.8933C123.354 10.7482 125.579 5.60981 127.811 0.464678C127.872 0.329989 127.926 0.188565 128 0.0134689H127.615C125.883 0.0134689 124.152 0.0134689 122.428 0.0134689C122.178 0.0134689 122.056 0.0875481 121.955 0.31652C120.792 3.01704 119.622 5.71756 118.452 8.41135C118.378 8.58644 118.29 8.75481 118.188 8.99051C117.005 5.95327 115.848 2.98337 114.692 0.0202034H108.87C108.911 0.141424 108.944 0.222237 108.978 0.309785C110.98 5.45492 112.988 10.6068 114.996 15.7519C115.091 15.9876 115.091 16.1829 114.99 16.4186C113.042 20.8903 111.108 25.362 109.168 29.8337C108.884 30.4937 108.593 31.1604 108.288 31.8675C110.202 32.0695 112.075 32.2581 113.948 32.4534C115.274 29.4094 116.586 26.3856 117.924 23.2945C117.985 23.4427 118.012 23.51 118.039 23.5774C119.277 26.756 120.514 29.928 121.745 33.1066C121.833 33.3423 121.961 33.4232 122.205 33.4568C123.679 33.6387 125.146 33.8407 126.614 34.036C127.06 34.0966 127.513 34.1572 128 34.2178C127.946 34.0629 127.919 33.9686 127.885 33.8744C125.626 28.0827 123.368 22.2911 121.109 16.4994H121.103ZM22.7139 31.5442C27.7044 31.1738 32.6678 30.8102 37.6447 30.4398V25.1869C34.453 25.4024 31.2815 25.6179 28.1033 25.8334V17.8127H35.3726V17.449C35.3726 15.9203 35.3658 14.3916 35.3794 12.8628C35.3794 12.5665 35.2915 12.4924 35.0007 12.4924C32.8233 12.5194 30.6391 12.5328 28.4617 12.5463C28.3468 12.5463 28.2251 12.5463 28.1101 12.5463V5.31349H37.6447V0.0269379H22.7139V31.5442ZM61.2918 29.7057H66.6676V17.5231H73.9504V12.2298H66.6812V5.32023H76.2969V0.0269379H61.2985V29.7057H61.2918ZM41.1542 5.34043H46.7803V30.0425C48.5858 29.9886 50.3507 29.9347 52.1765 29.8741V5.31349H57.7958V0.0336723H41.1542V5.34043ZM85.5813 24.9579C85.1553 24.931 85.1553 24.9445 85.1553 24.5135C85.1553 16.4994 85.1553 8.47869 85.1553 0.464678C85.1553 0.323254 85.1553 0.181831 85.1553 0.0336723C85.0741 0.0202034 85.0403 0.00673447 85.0133 0.00673447C83.343 0.00673447 81.6728 0.00673447 80.0093 0C79.7456 0 79.7726 0.154893 79.7726 0.323254C79.7726 10.1152 79.7726 19.9003 79.7726 29.6923C79.7726 29.9482 79.8538 30.0222 80.0972 30.029C82.4301 30.1165 84.7563 30.2108 87.0892 30.3186C88.5701 30.3859 90.051 30.4802 91.5319 30.561C92.4786 30.6149 93.4253 30.6755 94.3991 30.7294V25.4765C94.3517 25.463 94.3179 25.4563 94.2909 25.4563C91.3899 25.2879 88.489 25.1263 85.5948 24.9647L85.5813 24.9579ZM98.8756 31.0459C100.661 31.194 102.432 31.3422 104.224 31.4904V0.0336723H98.8756V31.0459Z" fill="white"/>
</svg>
