<svg width="607" height="70" viewBox="0 0 607 70" fill="none" xmlns="http://www.w3.org/2000/svg">
<g clip-path="url(#clip0_4093_5857)">
<path d="M205.205 10.4478V69.7997H205.918C211.057 69.7997 215.408 65.1255 215.408 59.589V0.137109H214.695C209.456 0.137109 205.205 4.76128 205.205 10.4478ZM276.424 49.0784C273.961 47.7661 269.547 46.3039 263.32 44.7416C258.369 43.5419 254.943 42.5045 253.13 41.6797C250.305 40.3924 248.879 38.8177 248.879 37.018C248.879 35.2183 250.392 33.4562 253.355 32.0439C256.444 30.5692 260.17 29.8193 264.408 29.8193C268.147 29.8193 271.523 30.4192 274.436 31.6065C277.274 32.7688 279.062 34.181 279.712 35.8182C280.225 37.0555 281.213 37.5554 282.551 37.243L282.951 37.1555V36.7431C282.851 33.9186 280.963 31.519 277.337 29.6068C273.811 27.7447 269.46 26.8073 264.396 26.8073C259.332 26.8073 254.906 27.7697 251.355 29.6693C247.704 31.619 245.853 34.0935 245.853 37.0055C245.853 39.9175 247.641 42.2921 251.167 44.0043C253.205 45.0666 257.044 46.2914 262.57 47.6411C268.397 49.1034 272.46 50.3781 274.649 51.4529C278.187 53.2401 279.987 55.5522 279.987 58.3267C279.987 60.5138 278.475 62.476 275.486 64.1382C272.398 65.8504 268.672 66.7252 264.408 66.7252C260.707 66.7252 257.381 66.0503 254.493 64.7256C251.667 63.4258 249.879 61.7886 249.167 59.8764C248.704 58.5267 247.716 57.9893 246.316 58.2892L245.903 58.3767L245.928 58.8016C246.103 61.9011 248.029 64.5506 251.63 66.6502C255.156 68.6999 259.457 69.7372 264.396 69.7372C269.335 69.7372 273.711 68.6999 277.262 66.6377C281.063 64.4131 282.988 61.6136 282.988 58.3267C282.988 54.4524 280.775 51.328 276.411 49.0659L276.424 49.0784ZM0 10.4478V69.7997H0.712691C5.85157 69.7997 10.2027 65.1255 10.2027 59.589V0.137109H9.49004C4.26364 0.137109 0 4.76128 0 10.4478ZM182.574 0.424557C180.136 1.18692 178.16 2.94911 176.997 5.37367L152.178 58.2517L151.991 57.8393C148.102 49.3908 134.824 20.6085 127.309 5.17371C126.209 2.83663 124.296 1.13693 121.92 0.387064C119.62 -0.325309 117.106 -0.0378601 115.018 1.17442L114.318 1.56185L143.438 64.0007C145.551 67.925 148.577 69.9996 152.191 69.9996C155.804 69.9996 158.918 67.9375 160.818 64.0132L190.076 1.76182L190.176 1.56185L189.488 1.18692C187.363 -0.0253623 184.912 -0.300313 182.574 0.424557ZM85.8105 10.4478V69.7997H86.5232C91.662 69.7997 96.0132 65.1255 96.0132 59.589V0.137109H95.3005C90.0616 0.137109 85.8105 4.76128 85.8105 10.4478ZM25.1067 34.7809C25.4068 34.556 55.4148 12.5099 65.7551 4.59881C64.2047 2.36171 61.8666 0.836984 59.2909 0.387064C58.7657 0.29958 58.2406 0.249589 57.7155 0.249589C55.8024 0.249589 53.9644 0.861979 52.4265 2.04927L16.0543 29.8568C14.3788 31.1441 13.4161 33.1062 13.4286 35.2433C13.4411 37.3805 14.4164 39.3301 16.1168 40.5924L53.2518 68.2499C55.0022 69.5622 57.2403 70.0371 59.5409 69.5997C62.1541 69.1123 64.5923 67.4751 66.1427 65.213L24.6191 35.1559L25.1192 34.7934L25.1067 34.7809ZM513.175 29.6443V30.1318H531.88V69.5997H532.43C533.918 69.5997 534.793 68.8998 534.943 67.5751C534.968 67.3626 534.981 67.1626 534.981 66.9627V30.1318H551.198C552.81 30.1318 553.686 29.2444 553.686 27.6447V27.1573H515.663C514.063 27.1573 513.175 28.0446 513.175 29.6443ZM606.562 27.3697C606.25 27.2073 605.875 27.1323 605.475 27.1323C604.462 27.1323 603.687 27.6322 603.224 28.5945L585.782 65.5129C585.407 66.3253 584.919 66.7252 584.294 66.7252C583.669 66.7252 583.156 66.3128 582.744 65.4504L565.301 28.607C564.851 27.6447 564.076 27.1448 563.051 27.1448C562.701 27.1448 562.338 27.2198 561.988 27.3697L561.525 27.5697L580.043 66.7377C580.956 68.6999 582.381 69.6997 584.281 69.6997C586.182 69.6997 587.545 68.6999 588.458 66.7377L606.938 27.6697L606.975 27.5947L606.55 27.3822L606.562 27.3697ZM336.828 26.6699C336.09 26.6699 335.502 26.9573 335.115 27.4947L316.46 63.1634C316.297 63.4883 316.172 63.6633 316.11 63.7383C316.035 63.6758 315.91 63.5133 315.735 63.1509L297.305 27.7447C296.93 27.0448 296.279 26.6699 295.429 26.6699C294.166 26.6699 293.416 27.3323 293.304 28.532V69.7997H293.804C295.267 69.7247 296.129 68.9373 296.292 67.4751V32.2064L313.121 64.5381C313.884 66.0128 314.897 66.7502 316.135 66.7502C317.372 66.7502 318.385 66.0004 319.148 64.5381L335.977 32.2064V67.2876C335.977 68.8498 336.865 69.7372 338.466 69.7872H338.966V28.5445C338.966 27.8447 338.691 26.6824 336.84 26.6824L336.828 26.6699ZM449.333 29.5569V30.0443H468.038V69.4997H468.588C470.076 69.4997 470.951 68.7999 471.101 67.4876C471.126 67.2751 471.139 67.0752 471.139 66.8752V30.0443H487.355C488.968 30.0443 489.844 29.1569 489.844 27.5572V27.0698H451.821C450.221 27.0698 449.333 27.9571 449.333 29.5569ZM371.287 26.7324C369.424 26.7324 367.999 27.7322 367.086 29.7068L348.806 69.0873L348.768 69.1623L349.231 69.3623C349.581 69.5122 349.944 69.5872 350.306 69.5872C351.319 69.5872 352.107 69.0998 352.569 68.175L357.633 57.1269H384.953L390.079 68.175C390.492 69.0998 391.255 69.5872 392.28 69.5872C392.705 69.5872 393.093 69.4747 393.418 69.2498L393.768 69.0248L375.551 29.6943C374.638 27.7197 373.2 26.7199 371.287 26.7199V26.7324ZM359.021 54.165L369.786 30.9941C370.162 30.1318 370.662 29.7193 371.287 29.7193C371.912 29.7193 372.437 30.1442 372.85 31.0066L383.565 54.1775H359.034L359.021 54.165ZM439.768 39.1676C439.768 31.1191 434.316 27.0323 423.551 27.0323H406.634C405.021 27.0323 404.146 27.8697 404.146 29.3944V69.6122H404.646C406.246 69.5497 407.121 68.7124 407.121 67.2376V30.0193H423.551C432.453 30.0193 436.779 33.0187 436.779 39.1676C436.779 45.3165 432.453 48.6409 423.551 48.6409H411.273C409.747 48.6409 408.897 49.5283 408.897 51.128V51.6154H424.064L437.442 68.5749C437.917 69.1998 438.567 69.5247 439.393 69.5247C439.955 69.5247 440.48 69.3373 440.943 68.9873L441.331 68.6874L427.652 51.3905C435.679 50.3032 439.743 46.1914 439.743 39.1801L439.768 39.1676Z" fill="white"/>
</g>
<defs>
<clipPath id="clip0_4093_5857">
<rect width="607" height="70" fill="white"/>
</clipPath>
</defs>
</svg>
