<svg width="358" height="59" viewBox="0 0 358 59" fill="none" xmlns="http://www.w3.org/2000/svg">
<path d="M62.3135 0.25H6.23233C2.80406 0.25 0 3.05406 0 6.48233V15.8308H6.23233V6.48233H62.3135V50.0989H40.5053V56.3312H62.3135C65.7418 56.3312 68.5459 53.5271 68.5459 50.0989V6.48233C68.5459 3.05406 65.7418 0.25 62.3135 0.25ZM0 46.9827V56.3312H9.34849C9.34849 51.1571 5.1741 46.9827 0 46.9827ZM0 34.5229V40.7553C8.59749 40.7553 15.5759 47.7337 15.5759 56.3312H21.8083C21.8083 44.2762 12.055 34.5229 0 34.5229ZM0 22.0583V28.2906C15.4833 28.2906 28.0406 40.8479 28.0406 56.3312H34.2729C34.2729 37.3904 18.9116 22.0583 0 22.0583Z" fill="#4285F4"/>
<path d="M111.539 47.5874C100.689 47.5874 91.5645 38.7509 91.5645 27.8907C91.5645 17.0304 100.689 8.20374 111.539 8.20374C117.542 8.20374 121.814 10.5591 125.033 13.6314L121.239 17.4254C118.932 15.2651 115.811 13.5827 111.534 13.5827C103.61 13.5827 97.4164 19.971 97.4164 27.8955C97.4164 35.8201 103.615 42.2085 111.534 42.2085C116.674 42.2085 119.605 40.1408 121.478 38.273C123.014 36.7369 124.023 34.5034 124.404 31.4847H111.534V26.1497H129.646C129.841 27.1104 129.934 28.2369 129.934 29.4902C129.934 33.5232 128.827 38.5217 125.272 42.0768C121.819 45.666 117.401 47.5874 111.539 47.5874Z" fill="#010101"/>
<path d="M157.253 34.9081C157.253 42.2035 151.577 47.5873 144.613 47.5873C137.649 47.5873 131.973 42.2035 131.973 34.9081C131.973 27.6127 137.649 22.2289 144.613 22.2289C151.577 22.2289 157.253 27.559 157.253 34.9081ZM151.718 34.9081C151.718 30.3485 148.431 27.2274 144.608 27.2274C140.785 27.2274 137.503 30.3485 137.503 34.9081C137.503 39.4678 140.79 42.5888 144.608 42.5888C148.426 42.5888 151.718 39.4141 151.718 34.9081Z" fill="#010101"/>
<path d="M184.597 34.9081C184.597 42.2035 178.92 47.5873 171.957 47.5873C164.993 47.5873 159.316 42.2035 159.316 34.9081C159.316 27.6127 164.993 22.2289 171.957 22.2289C178.92 22.2289 184.597 27.559 184.597 34.9081ZM179.062 34.9081C179.062 30.3485 175.775 27.2274 171.952 27.2274C168.128 27.2274 164.846 30.3485 164.846 34.9081C164.846 39.4678 168.133 42.5888 171.952 42.5888C175.77 42.5888 179.062 39.4141 179.062 34.9081Z" fill="#010101"/>
<path d="M210.638 22.9946V45.5442C210.638 54.9073 205.117 58.7501 198.587 58.7501C192.438 58.7501 188.741 54.6196 187.352 51.2596L192.199 49.2455C193.067 51.3132 195.174 53.7613 198.587 53.7613C202.762 53.7613 205.356 51.1669 205.356 46.3195V44.7054H205.161C203.913 46.2415 201.513 47.5875 198.485 47.5875C192.15 47.5875 186.625 42.0671 186.625 34.957C186.625 27.8469 192.145 22.2339 198.485 22.2339C201.513 22.2339 203.913 23.5798 205.161 25.0672H205.356V22.9995H210.638V22.9946ZM205.736 34.9521C205.736 30.4851 202.791 27.2227 199.026 27.2227C195.262 27.2227 192.189 30.49 192.189 34.9521C192.189 39.4142 195.218 42.5889 199.026 42.5889C202.835 42.5889 205.736 39.3655 205.736 34.9521Z" fill="#010101"/>
<path d="M219.825 9.54968V46.8169H214.256V9.54968H219.825Z" fill="#010101"/>
<path d="M241.004 39.0825L245.325 41.9646C243.93 44.0323 240.57 47.5825 234.762 47.5825C227.56 47.5825 222.176 42.0133 222.176 34.9032C222.176 27.3591 227.603 22.224 234.133 22.224C240.663 22.224 243.93 27.4615 244.984 30.2948L245.559 31.7334L228.613 38.7509C229.905 41.2965 231.929 42.5937 234.762 42.5937C237.596 42.5937 239.566 41.1989 241.004 39.0874V39.0825ZM227.701 34.518L239.034 29.8071C238.405 28.2222 236.533 27.1201 234.323 27.1201C231.495 27.1201 227.555 29.6218 227.701 34.518Z" fill="#010101"/>
<path d="M261.045 29.573C261.045 19.1761 268.906 11.3149 279.205 11.3149C284.477 11.3149 288.92 13.4119 292.046 17.0255L288.92 20.0539C286.481 17.0255 283.209 15.6113 279.205 15.6113C271.837 15.6113 265.634 20.9804 265.634 29.573C265.634 38.1656 271.832 43.5348 279.205 43.5348C283.599 43.5348 287.31 41.4866 289.944 38.4582L293.07 41.5842C289.993 45.2465 285.062 47.8311 279.205 47.8311C268.906 47.8311 261.045 39.97 261.045 29.573Z" fill="#010101"/>
<path d="M295.21 39.8237C295.21 34.4057 300.091 31.4749 305.704 31.4749C308.928 31.4749 311.269 32.4014 312.195 32.9379V32.2551C312.195 28.6416 309.313 26.4471 305.948 26.4471C303.461 26.4471 301.067 27.6662 300.238 29.9144L296.137 28.1588C296.966 25.9643 299.848 22.3507 305.851 22.3507C311.854 22.3507 316.492 25.8668 316.492 32.6014V47.0508H312.195V43.7298H312C310.683 45.7292 308.24 47.8311 304.139 47.8311C299.258 47.8311 295.205 44.8027 295.205 39.8237H295.21ZM312.2 36.7514C312.2 36.7514 310.298 35.1909 306.49 35.1909C301.754 35.1909 299.901 37.7316 299.901 39.9261C299.901 42.4668 302.54 43.7347 304.88 43.7347C308.445 43.7347 312.2 40.6576 312.2 36.7563V36.7514Z" fill="#010101"/>
<path d="M319.764 40.994L323.767 39.336C325.035 42.3644 327.381 43.8274 330.258 43.8274C333.135 43.8274 335.042 42.4619 335.042 40.4576C335.042 39.2385 334.311 37.9169 331.77 37.2829L326.937 36.1125C324.743 35.5761 320.544 33.6742 320.544 29.4755C320.544 25.2767 325.035 22.3507 330.014 22.3507C334.164 22.3507 337.778 24.2526 339.241 27.9149L335.335 29.5242C334.408 27.281 332.209 26.3495 329.868 26.3495C327.327 26.3495 325.133 27.4712 325.133 29.4267C325.133 30.9384 326.401 31.7675 328.307 32.2112L333.043 33.3329C337.778 34.4545 339.631 37.3853 339.631 40.3113C339.631 44.5589 335.822 47.8311 330.209 47.8311C324.596 47.8311 321.178 44.4126 319.764 40.9989V40.994Z" fill="#010101"/>
<path d="M345.927 39.7749V27.2322H341.729V23.131H345.927V15.8112H350.419V23.131H356.275V27.2322H350.419V39.4335C350.419 42.1157 351.54 43.3397 353.642 43.3397C354.471 43.3397 355.056 43.2422 355.69 42.9496L357.251 46.807C356.227 47.2459 355.154 47.441 353.637 47.441C348.609 47.441 345.922 44.6564 345.922 39.7749H345.927Z" fill="#010101"/>
</svg>
