<svg width="307" height="54" viewBox="0 0 307 54" fill="none" xmlns="http://www.w3.org/2000/svg">
<path d="M101.754 42.4096C90.9788 42.4096 81.9082 33.5436 81.9082 22.6316C81.9082 11.7196 90.9788 2.85364 101.754 2.85364C107.688 2.85364 111.984 5.17244 115.19 8.24144L111.371 12.0606C109.052 9.87823 105.983 8.17324 101.754 8.17324C93.8432 8.17324 87.7052 14.584 87.7052 22.4952C87.7052 30.4746 93.8432 36.8172 101.754 36.8172C106.869 36.8172 109.734 34.7712 111.643 32.8616C113.144 31.293 114.167 29.1106 114.508 26.0416H101.686V20.6538H119.691C119.896 21.6086 119.964 22.768 119.964 23.9956C119.964 28.0194 118.873 32.998 115.326 36.6126C111.984 40.5 107.551 42.4096 101.754 42.4096ZM264.957 41.6594V11.1058H274.573V6.80924H250.84V11.1058H260.524V41.6594H264.957ZM289.645 41.6594H294.283L306.9 6.80924H301.921L292.1 35.1122H291.896L282.416 6.80924H277.438L289.645 41.6594ZM135.445 42.4096C142.265 42.4096 147.858 37.0218 147.858 29.7244C147.858 22.3588 142.265 17.0392 135.445 17.0392C128.625 17.0392 123.033 22.3588 123.033 29.7244C123.033 37.0218 128.625 42.4096 135.445 42.4096ZM135.445 22.0178C139.264 22.0178 142.47 25.155 142.47 29.7244C142.47 34.2256 139.196 37.431 135.445 37.431C131.626 37.431 128.421 34.2256 128.421 29.7244C128.421 25.155 131.694 22.0178 135.445 22.0178ZM175.751 29.7244C175.751 37.0218 170.159 42.4096 163.339 42.4096C156.519 42.4096 150.927 37.0218 150.927 29.7244C150.927 22.3588 156.519 17.0392 163.339 17.0392C170.159 16.971 175.751 22.3588 175.751 29.7244ZM170.295 29.7244C170.295 25.155 167.09 22.0178 163.271 22.0178C159.52 22.0178 156.246 25.155 156.246 29.7244C156.246 34.2256 159.452 37.431 163.271 37.431C167.022 37.431 170.295 34.2256 170.295 29.7244ZM202.895 40.6364V17.7894H197.712V19.8354H197.507C196.211 18.335 193.893 17.0392 190.892 17.0392C184.617 17.0392 178.82 22.6316 178.82 29.7926C178.82 36.8854 184.549 42.4096 190.892 42.4096C193.893 42.4096 196.28 41.1138 197.507 39.5452H197.712V41.3184C197.712 46.2288 195.12 48.8204 190.96 48.8204C187.55 48.8204 185.436 46.3652 184.617 44.3192L179.775 46.3652C181.139 49.707 184.822 53.8672 190.96 53.8672C197.439 53.799 202.895 49.9798 202.895 40.6364ZM191.233 22.0178C195.052 22.0178 197.985 25.2914 197.985 29.7926C197.985 34.2256 195.052 37.431 191.233 37.431C187.414 37.431 184.208 34.2256 184.208 29.7926C184.276 25.2914 187.414 22.0178 191.233 22.0178ZM212.579 4.28584V41.6594H207.055V4.28584H212.579ZM238.7 36.8172L234.403 33.9528C232.903 36.067 231.062 37.431 228.265 37.431C225.469 37.431 223.423 36.1352 222.127 33.5436L238.973 26.519L238.427 25.0868C237.404 22.2906 234.131 17.0392 227.652 17.0392C221.173 17.0392 215.989 22.2224 215.989 29.7244C215.989 36.8172 221.173 42.4096 228.334 42.4096C233.994 42.4096 237.336 38.8632 238.7 36.8172ZM232.357 24.6094L221.104 29.3152C220.968 24.4048 224.924 21.8814 227.72 21.8814C229.902 21.9496 231.744 23.0408 232.357 24.6094Z" fill="#202124"/>
<path d="M52.7175 0.466675H16.9125C13.7754 0.466675 11.252 2.99008 11.252 6.12727V11.7879H54.8999C58.0371 11.7879 60.5605 14.3113 60.5605 17.4485V8.30967C60.5605 3.94487 57.0141 0.466675 52.7175 0.466675Z" fill="#4285F4"/>
<path d="M7.843 0.466675C3.5464 0.466675 0 4.01308 0 8.37788V27.9513C0 31.0885 2.5234 33.6119 5.6606 33.6119H11.3212V6.12727C11.3212 2.99008 13.8446 0.466675 16.9818 0.466675H7.843Z" fill="#34A853"/>
<path d="M7.843 45.0012H43.648C46.7852 45.0012 49.3086 42.4778 49.3086 39.3406V33.68H5.6606C2.5234 33.68 0 31.1566 0 28.0194V37.2264C0 41.3866 3.4782 45.0012 7.843 45.0012Z" fill="#FBBC04"/>
<path d="M52.7189 45.0013C57.0155 45.0013 60.5619 41.4549 60.5619 37.0901V17.5167C60.5619 14.3795 58.0385 11.8561 54.9013 11.8561H49.2407V39.3407C49.2407 42.4779 46.7173 45.0013 43.5801 45.0013H52.7189Z" fill="#EA4335"/>
</svg>
