<svg width="453" height="62" viewBox="0 0 453 62" fill="none" xmlns="http://www.w3.org/2000/svg">
<path fill-rule="evenodd" clip-rule="evenodd" d="M61.7929 21.6346C64.2887 21.6346 66.3143 19.5975 66.3143 17.0874C66.3143 14.5773 64.2887 12.5402 61.7929 12.5402C59.2971 12.5402 57.2715 14.5773 57.2715 17.0874C57.2715 19.5975 59.2971 21.6346 61.7929 21.6346Z" fill="#34A853"/>
<path fill-rule="evenodd" clip-rule="evenodd" d="M48.2284 36.7925C53.223 36.7925 57.2712 32.7212 57.2712 27.698C57.2712 22.6748 53.223 18.6035 48.2284 18.6035C43.2337 18.6035 39.1855 22.6748 39.1855 27.698C39.1855 32.7212 43.2337 36.7925 48.2284 36.7925Z" fill="#EA4335"/>
<path fill-rule="evenodd" clip-rule="evenodd" d="M48.2296 61.0447C54.0562 61.0447 58.7796 56.2943 58.7796 50.4344C58.7796 44.5746 54.0562 39.8242 48.2296 39.8242C42.403 39.8242 37.6797 44.5746 37.6797 50.4344C37.6797 56.2943 42.403 61.0447 48.2296 61.0447Z" fill="#FBBC04"/>
<path fill-rule="evenodd" clip-rule="evenodd" d="M36.1712 18.604C36.1712 8.56066 28.0749 0.415039 18.0856 0.415039C8.09633 0.415039 0 8.56066 0 18.604C0 28.6473 8.09633 36.793 18.0856 36.793C28.0749 36.793 36.1712 28.6473 36.1712 18.604Z" fill="#4285F4"/>
<path d="M105.096 50.5104C94.178 50.5104 84.998 41.6102 84.998 30.6803C84.9959 19.7504 94.1758 10.8502 105.096 10.8502C111.136 10.8502 115.437 13.221 118.672 16.3152L114.854 20.1369C112.536 17.9605 109.395 16.2677 105.094 16.2677C97.1222 16.2677 90.8887 22.6999 90.8887 30.6803C90.8887 38.6607 97.1222 45.093 105.094 45.093C110.264 45.093 113.211 43.0137 115.096 41.1265C116.643 39.5784 117.656 37.3544 118.042 34.3078H105.096V28.8925H123.312C123.506 29.8598 123.601 31.0215 123.601 32.2781C123.601 36.3417 122.49 41.3705 118.914 44.9505C115.435 48.5758 110.991 50.5104 105.096 50.5104Z" fill="#757575"/>
<path d="M150.94 37.6546C150.94 45.0067 145.192 50.4219 138.137 50.4219C131.083 50.4219 125.333 45.0045 125.333 37.6546C125.333 30.255 131.083 24.8851 138.137 24.8851C145.192 24.8851 150.94 30.255 150.94 37.6546ZM145.336 37.6546C145.336 33.0598 142.002 29.916 138.137 29.916C134.271 29.916 130.937 33.0598 130.937 37.6546C130.937 42.1997 134.271 45.3932 138.137 45.3932C142.002 45.3932 145.336 42.1997 145.336 37.6546Z" fill="#757575"/>
<path d="M178.765 37.6546C178.765 45.0067 173.016 50.4219 165.961 50.4219C158.908 50.4219 153.157 45.0045 153.157 37.6546C153.157 30.255 158.908 24.8851 165.961 24.8851C173.016 24.8851 178.765 30.255 178.765 37.6546ZM173.161 37.6546C173.161 33.0598 169.826 29.916 165.961 29.916C162.096 29.916 158.761 33.0598 158.761 37.6546C158.761 42.1997 162.096 45.3932 165.961 45.3932C169.826 45.3932 173.161 42.1997 173.161 37.6546Z" fill="#757575"/>
<path d="M205.431 25.6818V48.5845C205.431 58.0159 199.875 61.8851 193.305 61.8851C187.121 61.8851 183.4 57.7265 181.998 54.3409L186.877 52.3091C187.746 54.3884 189.873 56.8542 193.302 56.8542C197.506 56.8542 200.114 54.2416 200.114 49.3575V47.52H199.922C198.667 49.0681 196.249 50.4219 193.205 50.4219C186.827 50.4219 180.982 44.8598 180.982 37.7021C180.982 30.4947 186.827 24.8851 193.205 24.8851C196.249 24.8851 198.665 26.2389 199.922 27.7395H200.114V25.6818H205.431ZM200.502 37.7021C200.502 33.2045 197.506 29.916 193.691 29.916C189.825 29.916 186.588 33.2045 186.588 37.7021C186.588 42.1522 189.825 45.3932 193.691 45.3932C197.506 45.3932 200.502 42.1522 200.502 37.7021Z" fill="#757575"/>
<path d="M209.238 12.1459H214.842V49.6771H209.238V12.1459Z" fill="#757575"/>
<path d="M236.01 41.8607L240.358 44.7627C238.956 46.842 235.574 50.4219 229.729 50.4219C222.482 50.4219 217.219 44.8123 217.219 37.6546C217.219 30.0607 222.529 24.8851 229.101 24.8851C235.721 24.8851 238.958 30.1578 240.02 33.0101L240.6 34.4611L223.545 41.5217C224.85 44.0847 226.88 45.391 229.729 45.391C232.58 45.391 234.561 43.9875 236.01 41.8607ZM222.626 37.2659L234.028 32.5265C233.4 30.9308 231.515 29.8188 229.293 29.8188C226.444 29.8167 222.482 32.3322 222.626 37.2659Z" fill="#757575"/>
<path d="M255.834 47.7469H251.505L264.027 13.6426H268.29L280.813 47.7469H276.483L266.292 19.038H266.026L255.834 47.7469ZM257.433 34.4249H274.885V38.0884H257.433V34.4249Z" fill="#757575"/>
<path d="M303.71 27.8971L300.18 28.8963C299.958 28.3079 299.63 27.7361 299.197 27.181C298.775 26.6149 298.198 26.1486 297.465 25.7822C296.733 25.4159 295.795 25.2327 294.651 25.2327C293.086 25.2327 291.781 25.5935 290.738 26.3151C289.705 27.0256 289.189 27.9304 289.189 29.0295C289.189 30.0064 289.544 30.778 290.255 31.3442C290.965 31.9104 292.076 32.3822 293.585 32.7596L297.382 33.6922C299.669 34.2473 301.373 35.0965 302.495 36.24C303.616 37.3724 304.176 38.8322 304.176 40.6196C304.176 42.085 303.755 43.395 302.911 44.5496C302.078 45.7042 300.913 46.6145 299.414 47.2806C297.915 47.9467 296.172 48.2798 294.185 48.2798C291.576 48.2798 289.417 47.7136 287.707 46.5812C285.997 45.4488 284.915 43.7947 284.46 41.6188L288.19 40.6862C288.545 42.0628 289.217 43.0953 290.205 43.7836C291.204 44.4719 292.509 44.816 294.118 44.816C295.95 44.816 297.404 44.4275 298.481 43.6504C299.569 42.8621 300.113 41.9185 300.113 40.8194C300.113 39.9313 299.802 39.1875 299.181 38.588C298.559 37.9774 297.604 37.5222 296.316 37.2225L292.053 36.2233C289.711 35.6683 287.99 34.8079 286.891 33.6422C285.803 32.4654 285.259 30.9945 285.259 29.2293C285.259 27.7861 285.664 26.5094 286.475 25.3992C287.296 24.2891 288.412 23.4176 289.822 22.7848C291.243 22.152 292.853 21.8356 294.651 21.8356C297.182 21.8356 299.17 22.3907 300.613 23.5008C302.067 24.611 303.1 26.0764 303.71 27.8971Z" fill="#757575"/>
<path d="M328.21 27.8971L324.68 28.8963C324.458 28.3079 324.13 27.7361 323.697 27.181C323.275 26.6149 322.698 26.1486 321.965 25.7822C321.233 25.4159 320.295 25.2327 319.151 25.2327C317.586 25.2327 316.281 25.5935 315.238 26.3151C314.205 27.0256 313.689 27.9304 313.689 29.0295C313.689 30.0064 314.044 30.778 314.755 31.3442C315.465 31.9104 316.576 32.3822 318.085 32.7596L321.882 33.6922C324.169 34.2473 325.873 35.0965 326.994 36.24C328.116 37.3724 328.676 38.8322 328.676 40.6196C328.676 42.085 328.255 43.395 327.411 44.5496C326.578 45.7042 325.412 46.6145 323.914 47.2806C322.415 47.9467 320.672 48.2798 318.685 48.2798C316.076 48.2798 313.917 47.7136 312.207 46.5812C310.497 45.4488 309.415 43.7947 308.96 41.6188L312.69 40.6862C313.045 42.0628 313.717 43.0953 314.705 43.7836C315.704 44.4719 317.009 44.816 318.618 44.816C320.45 44.816 321.904 44.4275 322.981 43.6504C324.069 42.8621 324.613 41.9185 324.613 40.8194C324.613 39.9313 324.302 39.1875 323.681 38.588C323.059 37.9774 322.104 37.5222 320.816 37.2225L316.553 36.2233C314.211 35.6683 312.49 34.8079 311.391 33.6422C310.303 32.4654 309.759 30.9945 309.759 29.2293C309.759 27.7861 310.164 26.5094 310.975 25.3992C311.796 24.2891 312.912 23.4176 314.322 22.7848C315.743 22.152 317.353 21.8356 319.151 21.8356C321.682 21.8356 323.67 22.3907 325.113 23.5008C326.567 24.611 327.6 26.0764 328.21 27.8971Z" fill="#757575"/>
<path d="M334.592 47.7469V22.1686H338.522V47.7469H334.592ZM336.59 17.9056C335.824 17.9056 335.164 17.6447 334.609 17.1229C334.065 16.6012 333.793 15.9739 333.793 15.2412C333.793 14.5085 334.065 13.8813 334.609 13.3595C335.164 12.8377 335.824 12.5768 336.59 12.5768C337.357 12.5768 338.012 12.8377 338.555 13.3595C339.111 13.8813 339.388 14.5085 339.388 15.2412C339.388 15.9739 339.111 16.6012 338.555 17.1229C338.012 17.6447 337.357 17.9056 336.59 17.9056Z" fill="#757575"/>
<path d="M363.838 27.8971L360.308 28.8963C360.086 28.3079 359.758 27.7361 359.325 27.181C358.903 26.6149 358.326 26.1486 357.593 25.7822C356.861 25.4159 355.923 25.2327 354.779 25.2327C353.214 25.2327 351.909 25.5935 350.866 26.3151C349.833 27.0256 349.317 27.9304 349.317 29.0295C349.317 30.0064 349.672 30.778 350.383 31.3442C351.093 31.9104 352.204 32.3822 353.713 32.7596L357.51 33.6922C359.797 34.2473 361.501 35.0965 362.622 36.24C363.744 37.3724 364.304 38.8322 364.304 40.6196C364.304 42.085 363.883 43.395 363.039 44.5496C362.206 45.7042 361.041 46.6145 359.542 47.2806C358.043 47.9467 356.3 48.2798 354.313 48.2798C351.704 48.2798 349.545 47.7136 347.835 46.5812C346.125 45.4488 345.043 43.7947 344.588 41.6188L348.318 40.6862C348.673 42.0628 349.345 43.0953 350.333 43.7836C351.332 44.4719 352.637 44.816 354.246 44.816C356.078 44.816 357.532 44.4275 358.609 43.6504C359.697 42.8621 360.241 41.9185 360.241 40.8194C360.241 39.9313 359.93 39.1875 359.309 38.588C358.687 37.9774 357.732 37.5222 356.444 37.2225L352.181 36.2233C349.839 35.6683 348.118 34.8079 347.019 33.6422C345.931 32.4654 345.387 30.9945 345.387 29.2293C345.387 27.7861 345.792 26.5094 346.603 25.3992C347.424 24.2891 348.54 23.4176 349.95 22.7848C351.371 22.152 352.981 21.8356 354.779 21.8356C357.31 21.8356 359.298 22.3907 360.741 23.5008C362.195 24.611 363.228 26.0764 363.838 27.8971Z" fill="#757575"/>
<path d="M381.344 22.1686V25.4991H368.089V22.1686H381.344ZM371.952 16.0405H375.882V40.4198C375.882 41.5299 376.043 42.3626 376.365 42.9176C376.698 43.4616 377.12 43.828 377.631 44.0167C378.152 44.1943 378.702 44.2832 379.279 44.2832C379.712 44.2832 380.067 44.261 380.345 44.2165C380.622 44.161 380.844 44.1166 381.011 44.0833L381.81 47.6137C381.544 47.7136 381.172 47.8135 380.695 47.9134C380.217 48.0244 379.612 48.0799 378.879 48.0799C377.769 48.0799 376.681 47.8412 375.616 47.3639C374.561 46.8865 373.684 46.1593 372.985 45.1824C372.296 44.2054 371.952 42.9732 371.952 41.4855V16.0405Z" fill="#757575"/>
<path d="M394.783 48.3464C393.162 48.3464 391.691 48.0411 390.37 47.4305C389.049 46.8088 388 45.9151 387.222 44.7494C386.445 43.5727 386.057 42.1516 386.057 40.4864C386.057 39.021 386.345 37.8331 386.923 36.9228C387.5 36.0013 388.272 35.2797 389.237 34.7579C390.203 34.2362 391.269 33.8476 392.435 33.5923C393.611 33.3258 394.794 33.1149 395.982 32.9595C397.536 32.7596 398.796 32.6098 399.762 32.5098C400.739 32.3988 401.449 32.2156 401.893 31.9603C402.348 31.705 402.576 31.2609 402.576 30.6281V30.4949C402.576 28.8518 402.126 27.5752 401.227 26.6648C400.339 25.7545 398.99 25.2993 397.181 25.2993C395.304 25.2993 393.833 25.7101 392.768 26.5316C391.702 27.3531 390.953 28.2302 390.52 29.1627L386.789 27.8305C387.456 26.2763 388.344 25.0662 389.454 24.2003C390.575 23.3232 391.796 22.7126 393.117 22.3685C394.45 22.0132 395.76 21.8356 397.047 21.8356C397.869 21.8356 398.813 21.9355 399.878 22.1353C400.955 22.3241 401.993 22.7182 402.992 23.3177C404.003 23.9172 404.841 24.8219 405.507 26.032C406.173 27.2421 406.506 28.8629 406.506 30.8946V47.7469H402.576V44.2832H402.376C402.11 44.8382 401.666 45.4322 401.044 46.065C400.422 46.6978 399.595 47.2362 398.563 47.6803C397.53 48.1243 396.27 48.3464 394.783 48.3464ZM395.382 44.816C396.936 44.816 398.246 44.5107 399.312 43.9002C400.389 43.2896 401.199 42.5013 401.743 41.5355C402.298 40.5696 402.576 39.5538 402.576 38.4881V34.8911C402.409 35.091 402.043 35.2742 401.477 35.4407C400.922 35.5961 400.278 35.7349 399.545 35.857C398.824 35.968 398.119 36.0679 397.43 36.1567C396.753 36.2345 396.204 36.3011 395.782 36.3566C394.76 36.4898 393.806 36.7063 392.918 37.006C392.041 37.2947 391.33 37.7332 390.786 38.3216C390.253 38.8988 389.987 39.6871 389.987 40.6862C389.987 42.0517 390.492 43.0842 391.502 43.7836C392.523 44.4719 393.817 44.816 395.382 44.816Z" fill="#757575"/>
<path d="M417.609 32.36V47.7469H413.679V22.1686H417.476V26.1652H417.809C418.408 24.8664 419.319 23.8228 420.54 23.0346C421.761 22.2353 423.337 21.8356 425.269 21.8356C427.001 21.8356 428.516 22.1909 429.815 22.9014C431.114 23.6008 432.124 24.6665 432.846 26.0986C433.568 27.5196 433.928 29.3181 433.928 31.494V47.7469H429.999V31.7605C429.999 29.7511 429.477 28.1857 428.433 27.0645C427.39 25.9321 425.958 25.3659 424.137 25.3659C422.882 25.3659 421.761 25.6379 420.773 26.1819C419.796 26.7259 419.025 27.5196 418.458 28.5632C417.892 29.6068 417.609 30.8723 417.609 32.36Z" fill="#757575"/>
<path d="M452.234 22.1686V25.4991H438.978V22.1686H452.234ZM442.842 16.0405H446.772V40.4198C446.772 41.5299 446.933 42.3626 447.255 42.9176C447.588 43.4616 448.01 43.828 448.52 44.0167C449.042 44.1943 449.592 44.2832 450.169 44.2832C450.602 44.2832 450.957 44.261 451.235 44.2165C451.512 44.161 451.734 44.1166 451.901 44.0833L452.7 47.6137C452.434 47.7136 452.062 47.8135 451.584 47.9134C451.107 48.0244 450.502 48.0799 449.769 48.0799C448.659 48.0799 447.571 47.8412 446.505 47.3639C445.451 46.8865 444.574 46.1593 443.874 45.1824C443.186 44.2054 442.842 42.9732 442.842 41.4855V16.0405Z" fill="#757575"/>
</svg>
